<svg version="1.1" id="Capa_1" xmlns="http://www.w3.org/2000/svg" xmlns:xlink="http://www.w3.org/1999/xlink" x="0px" y="0px"
	 viewBox="0 0 512.001 512.001" style="enable-background:new 0 0 512.001 512.001;" xml:space="preserve" class="icon icon-book">
<g>
	<g>
		<path d="M436.955,0h-336.43C80.962,0,65.047,15.915,65.047,35.477v441.047c0,19.562,15.915,35.477,35.477,35.477h336.43
			c5.523,0,10-4.478,10-10V10C446.955,4.477,442.478,0,436.955,0z M139.001,492h-16.977V115.252c0-5.522-4.477-10-10-10
			s-10,4.478-10,10V492h-1.5c-8.534,0-15.477-6.942-15.477-15.477V35.477C85.047,26.943,91.99,20,100.524,20h38.477V492z
			 M426.955,492H159.001V20h267.954V492z"/>
	</g>
</g>
<g>
	<g>
		<path d="M392.799,85.077H193.157c-5.523,0-10,4.478-10,10v62.759c0,5.522,4.477,10,10,10h199.642c5.523,0,10-4.478,10-10V95.077
			C402.799,89.555,398.322,85.077,392.799,85.077z M382.798,147.836H203.157v-11.379h121.811c5.523,0,10-4.477,10-10
			c0-5.522-4.477-10-10-10H203.157v-11.38h179.641V147.836z"/>
	</g>
</g>
<g>
	<g>
		<path d="M121.831,76.63c-0.13-0.64-0.32-1.271-0.57-1.87c-0.25-0.6-0.56-1.191-0.92-1.73c-0.37-0.551-0.78-1.061-1.25-1.52
			c-0.46-0.46-0.97-0.88-1.52-1.24c-0.54-0.359-1.12-0.67-1.72-0.92c-0.61-0.25-1.23-0.439-1.87-0.569
			c-1.29-0.261-2.62-0.261-3.91,0c-0.64,0.13-1.27,0.319-1.87,0.569c-0.6,0.25-1.19,0.561-1.73,0.92c-0.55,0.36-1.06,0.78-1.52,1.24
			c-0.46,0.46-0.88,0.97-1.24,1.52c-0.36,0.539-0.67,1.13-0.92,1.73c-0.25,0.6-0.44,1.23-0.57,1.87c-0.13,0.64-0.2,1.3-0.2,1.95
			c0,0.66,0.07,1.31,0.2,1.96c0.13,0.64,0.32,1.27,0.57,1.87c0.25,0.6,0.56,1.18,0.92,1.729c0.36,0.54,0.78,1.05,1.24,1.521
			c0.46,0.46,0.98,0.88,1.52,1.239c0.55,0.36,1.13,0.67,1.73,0.92c0.6,0.25,1.23,0.441,1.87,0.57c0.64,0.13,1.3,0.2,1.95,0.2
			c0.65,0,1.31-0.07,1.96-0.2c0.64-0.13,1.26-0.32,1.87-0.57c0.6-0.25,1.18-0.559,1.72-0.92c0.55-0.359,1.06-0.779,1.52-1.239
			c0.47-0.471,0.88-0.98,1.25-1.521c0.36-0.55,0.67-1.13,0.92-1.729c0.25-0.601,0.44-1.23,0.57-1.87c0.13-0.65,0.19-1.3,0.19-1.96
			C122.021,77.93,121.961,77.269,121.831,76.63z"/>
	</g>
</g>
<g>
	<g>
		<path d="M371.441,124.5c-0.13-0.641-0.32-1.271-0.57-1.87s-0.56-1.18-0.92-1.72c-0.37-0.551-0.78-1.061-1.24-1.521
			c-0.47-0.46-0.98-0.88-1.53-1.25c-0.54-0.359-1.12-0.67-1.72-0.92c-0.61-0.25-1.23-0.439-1.87-0.57c-1.29-0.26-2.62-0.26-3.91,0
			c-0.64,0.131-1.27,0.32-1.87,0.57c-0.61,0.25-1.19,0.561-1.73,0.92c-0.55,0.37-1.06,0.79-1.52,1.25
			c-0.46,0.46-0.88,0.97-1.24,1.521c-0.36,0.54-0.67,1.12-0.92,1.72s-0.44,1.229-0.57,1.87c-0.13,0.649-0.2,1.3-0.2,1.96
			c0,0.649,0.07,1.31,0.2,1.95c0.13,0.64,0.32,1.27,0.57,1.87c0.25,0.6,0.56,1.189,0.92,1.729c0.36,0.55,0.78,1.06,1.24,1.521
			c0.46,0.46,0.97,0.88,1.52,1.239c0.54,0.36,1.12,0.67,1.73,0.92c0.6,0.25,1.23,0.44,1.87,0.57c0.64,0.13,1.3,0.2,1.95,0.2
			c0.66,0,1.31-0.07,1.96-0.2c0.64-0.13,1.26-0.32,1.87-0.57c0.6-0.25,1.18-0.56,1.72-0.92c0.55-0.359,1.06-0.779,1.53-1.239
			c0.46-0.461,0.87-0.971,1.24-1.521c0.36-0.54,0.67-1.13,0.92-1.729c0.25-0.601,0.44-1.23,0.57-1.87
			c0.13-0.641,0.19-1.301,0.19-1.95C371.631,125.81,371.571,125.149,371.441,124.5z"/>
	</g>
</g>
<g>
	<g>
		<path d="M385.12,347.887c-3.934-34.193-26.416-63.131-58.086-75.6v-36.386h3.459c5.523,0,10-4.478,10-10c0-5.522-4.477-10-10-10
			h-75.031c-5.523,0-10,4.478-10,10c0,5.522,4.477,10,10,10h3.459v36.386c-31.669,12.469-54.151,41.407-58.085,75.6
			c-0.406,3.533-0.612,7.135-0.612,10.704c0,51.145,41.609,92.754,92.754,92.754c51.145,0,92.754-41.609,92.754-92.754
			C385.732,355.022,385.526,351.42,385.12,347.887z M271.824,288.957c4.215-1.278,7.097-5.165,7.097-9.569v-43.486h28.113v43.486
			c0,4.404,2.882,8.291,7.097,9.569c24.074,7.303,42.367,26.36,48.947,50.072H222.877
			C229.457,315.317,247.75,296.26,271.824,288.957z M292.978,431.345c-39.97,0-72.515-32.4-72.752-72.315h145.505
			C365.493,398.944,332.948,431.345,292.978,431.345z"/>
	</g>
</g>
<g>
</g>
<g>
</g>
<g>
</g>
<g>
</g>
<g>
</g>
<g>
</g>
<g>
</g>
<g>
</g>
<g>
</g>
<g>
</g>
<g>
</g>
<g>
</g>
<g>
</g>
<g>
</g>
<g>
</g>
</svg>
