<svg version="1.1" id="Capa_1" xmlns="http://www.w3.org/2000/svg" xmlns:xlink="http://www.w3.org/1999/xlink" x="0px" y="0px"
	 viewBox="0 0 512 512" style="enable-background:new 0 0 512 512;" xml:space="preserve" class="icon icon-bottle">
<g>
	<g>
		<path d="M367.837,196.294H321.39v-51.713h17.238c5.522,0,10-4.478,10-10V81.666c0-5.522-4.478-10-10-10H311.96l13.931-59.382
			c0.698-2.974-0.002-6.103-1.898-8.495C322.096,1.395,319.21,0,316.155,0H195.843c-3.054,0-5.94,1.395-7.837,3.789
			c-1.896,2.393-2.597,5.521-1.898,8.495l13.931,59.382h-26.668c-5.522,0-10,4.478-10,10v52.915c0,5.522,4.478,10,10,10h17.238
			v51.713h-46.446c-22.576,0-40.943,18.366-40.943,40.942V502c0,5.522,4.478,10,10,10H398.78c5.522,0,10-4.478,10-10V237.236
			C408.78,214.66,390.413,196.294,367.837,196.294z M303.538,20l-12.121,51.666h-70.836L208.46,20H303.538z M183.371,124.581V91.666
			h145.258v32.915H183.371z M123.22,492V237.236c0-11.548,9.396-20.942,20.943-20.942h94.596c5.522,0,10-4.477,10-10
			c0-5.522-4.478-10-10-10h-28.149v-51.713h90.781v61.713c0,5.523,4.478,10,10,10h56.446c11.548,0,20.943,9.395,20.943,20.942V492
			H123.22z"/>
	</g>
</g>
<g>
	<g>
		<path d="M285.228,204.33c-0.13-0.641-0.319-1.27-0.569-1.87c-0.25-0.601-0.561-1.181-0.92-1.73c-0.36-0.54-0.78-1.06-1.24-1.52
			c-0.46-0.46-0.98-0.88-1.521-1.24c-0.55-0.36-1.13-0.67-1.729-0.92c-0.601-0.25-1.23-0.44-1.87-0.57c-1.29-0.26-2.62-0.26-3.91,0
			c-0.64,0.13-1.27,0.32-1.87,0.57c-0.6,0.25-1.18,0.56-1.73,0.92c-0.54,0.36-1.06,0.78-1.52,1.24c-0.46,0.46-0.88,0.979-1.24,1.52
			c-0.359,0.55-0.67,1.13-0.92,1.73c-0.25,0.6-0.44,1.229-0.569,1.87c-0.13,0.649-0.2,1.3-0.2,1.96c0,0.65,0.07,1.3,0.2,1.95
			c0.129,0.64,0.319,1.27,0.569,1.869c0.25,0.601,0.56,1.181,0.92,1.73c0.36,0.54,0.78,1.06,1.24,1.52
			c0.46,0.46,0.98,0.881,1.52,1.24c0.55,0.36,1.13,0.67,1.73,0.92c0.601,0.25,1.23,0.441,1.87,0.57c0.65,0.13,1.3,0.2,1.96,0.2
			c0.65,0,1.3-0.07,1.95-0.2c0.64-0.13,1.27-0.32,1.87-0.57c0.6-0.25,1.18-0.559,1.729-0.92c0.54-0.359,1.061-0.78,1.521-1.24
			c0.46-0.46,0.88-0.98,1.24-1.52c0.359-0.55,0.67-1.13,0.92-1.73c0.25-0.6,0.439-1.23,0.569-1.869c0.13-0.65,0.19-1.301,0.19-1.95
			C285.418,205.63,285.358,204.98,285.228,204.33z"/>
	</g>
</g>
<g>
	<g>
		<path d="M357.851,280.727H154.147c-5.522,0-10,4.478-10,10v163.027c0,5.522,4.478,10,10,10H357.85c5.522,0,10-4.478,10-10V290.727
			C367.851,285.204,363.374,280.727,357.851,280.727z M164.147,443.754V300.727H347.85v143.027H164.147z"/>
	</g>
</g>
<g>
	<g>
		<path d="M262.551,319.035c-3.76-3.26-9.344-3.26-13.104,0c-1.492,1.294-36.557,32.119-36.557,68.263
			c0.002,23.77,19.34,43.108,43.11,43.108c23.771,0,43.108-19.338,43.108-43.108C299.108,351.154,264.043,320.329,262.551,319.035z
			 M255.999,410.406c-12.742,0-23.108-10.366-23.108-23.108c0-18.859,14.372-37.22,23.108-46.637
			c8.739,9.421,23.108,27.778,23.108,46.637C279.108,400.04,268.741,410.406,255.999,410.406z"/>
	</g>
</g>
<g>
	<g>
		<path d="M163.329,248.01c-0.13-0.63-0.32-1.26-0.57-1.87c-0.25-0.6-0.56-1.18-0.92-1.72c-0.37-0.55-0.79-1.061-1.25-1.521
			c-0.46-0.46-0.97-0.88-1.52-1.25c-0.539-0.359-1.119-0.67-1.72-0.92c-0.609-0.25-1.24-0.44-1.87-0.569
			c-1.3-0.261-2.62-0.261-3.91,0c-0.64,0.13-1.27,0.319-1.869,0.569c-0.61,0.25-1.19,0.56-1.73,0.92
			c-0.55,0.37-1.059,0.79-1.52,1.25c-0.46,0.46-0.881,0.971-1.24,1.521c-0.36,0.54-0.67,1.12-0.92,1.72
			c-0.25,0.61-0.44,1.24-0.57,1.87c-0.13,0.65-0.2,1.31-0.2,1.96c0,0.65,0.07,1.31,0.2,1.95c0.13,0.64,0.32,1.27,0.57,1.87
			c0.25,0.609,0.56,1.19,0.92,1.73c0.359,0.55,0.78,1.061,1.24,1.521c0.46,0.46,0.97,0.88,1.52,1.239
			c0.54,0.36,1.12,0.671,1.73,0.921c0.6,0.25,1.23,0.439,1.869,0.569c0.641,0.13,1.301,0.2,1.95,0.2c0.65,0,1.311-0.07,1.96-0.2
			c0.63-0.13,1.261-0.319,1.87-0.569c0.601-0.25,1.181-0.561,1.72-0.921c0.551-0.359,1.061-0.779,1.52-1.239
			c0.46-0.46,0.88-0.971,1.25-1.521c0.36-0.54,0.67-1.12,0.92-1.73c0.25-0.6,0.44-1.23,0.57-1.87c0.13-0.641,0.189-1.3,0.189-1.95
			C163.517,249.32,163.459,248.661,163.329,248.01z"/>
	</g>
</g>
<g>
	<g>
		<path d="M358.478,239.968H190.189c-5.522,0-10,4.477-10,10c0,5.522,4.478,10,10,10h168.288c5.522,0,10-4.478,10-10
			C368.478,244.445,363.999,239.968,358.478,239.968z"/>
	</g>
</g>
</svg>
