<svg version="1.1" xmlns="http://www.w3.org/2000/svg" xmlns:xlink="http://www.w3.org/1999/xlink" x="0px" y="0px"
	 viewBox="0 0 512 512" style="enable-background:new 0 0 512 512;" xml:space="preserve" class="icon icon-buildings">
<g>
	<g>
		<path d="M504.242,0C450.715,0,58.182,0,7.758,0C3.103,0,0,3.103,0,7.758v496.485C0,508.897,3.103,512,7.758,512h46.545
			c4.655,0,7.758-3.103,7.758-7.758v-18.618c76.8,0,306.424,0,387.879,0v18.618c0,4.655,3.103,7.758,7.758,7.758h46.545
			c4.655,0,7.758-3.103,7.758-7.758V7.758C512,3.103,508.897,0,504.242,0z M46.545,496.485h-31.03V15.515h31.03V496.485z
			 M211.006,470.885H94.642v-0.776v-72.145h32.582v5.43c0,4.655,3.103,7.758,7.758,7.758h35.685c4.655,0,7.758-3.103,7.758-7.758
			v-4.654h32.582V470.885z M94.642,382.448v-13.964h32.582v13.964H94.642z M142.739,395.636v-26.376h20.17v26.376H142.739z
			 M177.648,383.224v-13.964h32.582v13.964H177.648z M373.915,470.885H257.552v-0.776v-72.145h32.582v5.43
			c0,4.655,3.103,7.758,7.758,7.758h35.685c4.655,0,7.758-3.103,7.758-7.758v-4.654h32.582V470.885z M256.776,382.448v-13.964
			h32.582v13.964H256.776z M304.873,395.636v-26.376h20.17v26.376H304.873z M340.558,383.224v-13.964h32.582v13.964H340.558z
			 M449.939,470.109h-61.285v0c0-65.164,0-69.042,0-108.606c0-4.655-3.103-7.758-7.758-7.758c-140.412,0-10.861,0-131.103,0
			c-4.655,0-7.758,3.103-7.758,7.758c0,41.115,0-16.291,0,108.606h-15.515c0-65.164,0-69.042,0-108.606
			c0-4.655-3.103-7.758-7.758-7.758c-140.412,0-10.861,0-131.103,0c-4.655,0-7.758,3.103-7.758,7.758c0,41.115,0-16.291,0,108.606
			H62.061V332.8c59.733,0,338.23,0,387.879,0V470.109z M183.079,257.552h35.685c4.655,0,7.758-3.103,7.758-7.758v-4.655h32.582
			v72.145H142.739v-72.145h32.582v4.655C175.321,254.448,178.424,257.552,183.079,257.552z M190.061,242.812v-26.376h20.17v26.376
			H190.061z M225.745,230.4v-13.964h32.582V230.4H225.745z M174.545,229.624h-32.582v-13.964h32.582V229.624z M337.455,245.139
			v4.655c0,4.655,3.103,7.758,7.758,7.758h35.685c4.655,0,7.758-3.103,7.758-7.758v-4.655h32.582v72.145H304.873v-72.145H337.455z
			 M304.873,229.624v-13.964h32.582v13.964H304.873z M352.97,242.812v-26.376h20.17v26.376H352.97z M388.655,230.4v-13.964h32.582
			V230.4H388.655z M449.939,317.285h-13.964c0.776-64.388,0.776-68.267,0.776-108.606c0-4.655-3.103-7.758-7.758-7.758
			c-42.958,0-57.405,0-61.66,0c-1.208,0-1.599,0-1.583,0c-4.455,0-20.074,0-67.861,0c-4.655,0-7.758,3.103-7.758,7.758v28.703
			v79.903h-15.515v-79.127v-28.703c0-10.085-1.552-7.758-138.861-7.758c-4.655,0-7.758,3.103-7.758,7.758
			c0,41.115,0-16.291,0,108.606H62.061V179.976c71.37,0,305.648,0,387.879,0V317.285z M129.552,104.727h35.685
			c4.655,0,7.758-3.103,7.758-7.758v-4.655h32.582v72.146H89.212V92.315h32.582v4.655
			C121.794,101.624,124.897,104.727,129.552,104.727z M136.533,89.988V63.612h20.17v26.376H136.533z M172.218,77.576V63.612H204.8
			v13.964H172.218z M121.018,76.8H88.436V63.612h32.582V76.8z M283.927,92.315v4.655c0,4.655,3.103,7.758,7.758,7.758h35.685
			c4.655,0,7.758-3.103,7.758-7.758v-4.655h32.582v72.146H251.345V92.315H283.927z M251.345,76.8V63.612h32.582V76.8H251.345z
			 M299.442,89.988V63.612h20.17v26.376H299.442z M335.127,77.576V63.612h32.582v13.964H335.127z M449.939,164.461h-66.715
			c0-65.164,0-68.267,0-108.606c0-4.655-3.103-7.758-7.758-7.758c-5.97,0-10.555,0-14.036,0c-7.331,0-9.739,0-9.695,0
			c-13.585,0-44.095,0-107.373,0c-4.655,0-7.758,3.103-7.758,7.758v28.703v79.903h-15.515V85.333V55.855
			c0-4.655-3.103-7.758-7.758-7.758c-140.412,0-10.861,0-131.103,0c-4.655,0-7.758,3.103-7.758,7.758c0,41.115,0-16.291,0,108.606
			H62.061V15.515h387.879V164.461z M496.485,496.485h-31.03V15.515h31.03V496.485z"/>
	</g>
</g>
</svg>
