<svg version="1.1" id="Layer_1" xmlns="http://www.w3.org/2000/svg" xmlns:xlink="http://www.w3.org/1999/xlink" x="0px" y="0px"
	 viewBox="0 0 512 512" style="enable-background:new 0 0 512 512;" xml:space="preserve" class="icon icon-burner">
<g transform="translate(1 1)">
	<g>
		<path d="M434.2,323.267h-17.067c-14.507,0-25.6,11.947-25.6,25.6h-17.067v-34.133c0-5.12-3.413-8.533-8.533-8.533H331.8v-34.133
			h25.6c5.12,0,8.533-3.413,8.533-8.533V203.8c0-5.12-3.413-8.533-8.533-8.533h-58.88l1.707-1.707
			c30.72-26.453,37.547-69.973,17.92-105.813l-43.52-77.653C270.36,3.267,263.533-1,255-1c-8.533,0-15.36,4.267-19.627,11.947
			L191.853,88.6c-19.627,34.987-11.947,78.507,17.92,105.813l0.853,0.853H152.6c-5.12,0-8.533,3.413-8.533,8.533v59.733
			c0,5.12,3.413,8.533,8.533,8.533h25.6V306.2h-34.133c-5.12,0-8.533,3.413-8.533,8.533V459.8h-76.8
			c-5.12,0-8.533,3.413-8.533,8.533v34.133c0,5.12,3.413,8.533,8.533,8.533h392.533c5.12,0,8.533-3.413,8.533-8.533v-34.133
			c0-5.12-3.413-8.533-8.533-8.533h-76.8v-42.667h17.067c0,14.507,11.947,25.6,25.6,25.6H434.2c14.507,0,25.6-11.093,25.6-25.6
			v-68.267C459.8,334.36,447.853,323.267,434.2,323.267z M408.6,374.467h34.133v17.067H408.6V374.467z M408.6,348.867
			c0-5.12,4.267-8.533,8.533-8.533H434.2c5.12,0,8.533,4.267,8.533,8.533v8.533H408.6V348.867z M348.867,255H331.8v-42.667h17.067
			V255z M314.733,212.333V255h-17.067v-42.667H314.733z M263.533,255v-42.667H280.6V255H263.533z M229.4,255v-42.667h17.067V255
			H229.4z M195.267,255v-42.667h17.067V255H195.267z M265.24,190.147l-1.707,1.707c-5.12,4.267-12.8,4.267-17.92,0l-1.707-1.707
			c-11.947-11.093-15.36-29.013-6.827-43.52L255,111.64l17.067,34.987C280.6,161.133,277.187,179.053,265.24,190.147z
			 M207.213,96.28l43.52-77.653c0.853-2.56,3.413-2.56,4.267-2.56s3.413,0,4.267,2.56l43.52,77.653
			c14.726,26.998,9.832,61.046-11.651,82.611c3.886-12.995,2.485-27.36-4.562-39.944L267.8,101.4
			c-2.56-5.12-7.68-8.533-13.653-8.533c-5.973,0-11.093,3.413-13.653,8.533l-18.773,37.547c-6.697,11.958-8.028,25.524-4.751,37.995
			C196.275,154.724,192.096,122.537,207.213,96.28z M161.133,212.333H178.2V255h-17.067V212.333z M195.267,272.067h119.467V306.2
			H195.267V272.067z M442.733,493.933H67.267v-17.067h76.8h221.867h76.8V493.933z M152.6,459.8v-17.067h68.267
			c5.12,0,8.533-3.413,8.533-8.533s-3.413-8.533-8.533-8.533H152.6V408.6h42.667c5.12,0,8.533-3.413,8.533-8.533
			c0-5.12-3.413-8.533-8.533-8.533H152.6v-17.067h17.067c5.12,0,8.533-3.413,8.533-8.533s-3.413-8.533-8.533-8.533H152.6v-34.133
			h34.133h136.533H357.4V357.4v51.2v51.2H152.6z M374.467,400.067v-34.133h17.067v34.133H374.467z M434.2,425.667h-17.067
			c-5.12,0-8.533-4.267-8.533-8.533V408.6h34.133v8.533C442.733,422.253,438.467,425.667,434.2,425.667z"/>
	</g>
</g>
</svg>
