<svg version="1.1" id="Capa_1" xmlns="http://www.w3.org/2000/svg" xmlns:xlink="http://www.w3.org/1999/xlink" x="0px" y="0px"
	 viewBox="0 0 496 496" style="enable-background:new 0 0 496 496;" xml:space="preserve" class="icon icon-shesterenka">
<g><g><g><path d="M463.832,308.52L400,244.688V152h-30.832c-3.72-13.128-8.952-25.752-15.616-37.672L375.36,92.52l-67.88-67.88
	l-21.808,21.808c-11.92-6.664-24.544-11.896-37.672-15.616V0h-96v30.832c-13.128,3.72-25.752,8.952-37.672,15.616L92.52,24.64
	L24.64,92.52l21.808,21.808c-6.664,11.92-11.896,24.544-15.616,37.672H0v96h30.832c3.72,13.128,8.952,25.76,15.616,37.672
	L24.64,307.48l67.88,67.88l21.808-21.808c11.92,6.664,24.544,11.896,37.672,15.616V400h92.688l63.832,63.832
	C329.264,484.576,356.84,496,386.176,496C446.736,496,496,446.736,496,386.176C496,356.84,484.576,329.264,463.832,308.52z
	 M168,384v-27.272l-6.096-1.496c-15.776-3.848-30.824-10.096-44.72-18.528l-5.368-3.264L92.52,352.736L47.264,307.48
	l19.296-19.288l-3.256-5.368c-8.44-13.896-14.672-28.944-18.536-44.72L43.272,232H16v-64h27.272l1.496-6.096
	c3.864-15.784,10.104-30.824,18.536-44.72l3.256-5.368L47.264,92.52L92.52,47.264l19.296,19.296l5.368-3.256
	c13.896-8.44,28.944-14.672,44.72-18.536L168,43.272V16h64v27.272l6.096,1.496c15.776,3.864,30.824,10.096,44.72,18.536
	l5.368,3.256l19.296-19.296l45.256,45.256l-19.296,19.296l3.256,5.368c8.44,13.896,14.672,28.936,18.536,44.72l1.496,6.096H384
	v60.688l-108.52-108.52C254.736,99.424,227.16,88,197.824,88C137.264,88,88,137.264,88,197.824
	c0,29.336,11.424,56.912,32.168,77.656L228.688,384H168z M386.176,480c-25.056,0-48.624-9.76-66.344-27.48L131.48,264.168
	c-17.72-17.72-27.48-41.28-27.48-66.344C104,146.088,146.088,104,197.824,104c25.064,0,48.624,9.76,66.344,27.48L452.52,319.832
	c17.72,17.72,27.48,41.288,27.48,66.344C480,437.912,437.912,480,386.176,480z"/>
<path d="M200,120c-44.112,0-80,35.888-80,80s35.888,80,80,80s80-35.888,80-80S244.112,120,200,120z M200,264
	c-35.288,0-64-28.712-64-64c0-35.288,28.712-64,64-64c35.288,0,64,28.712,64,64C264,235.288,235.288,264,200,264z"/>
<path d="M384,304c-44.112,0-80,35.888-80,80s35.888,80,80,80s80-35.888,80-80S428.112,304,384,304z M384,448
	c-35.288,0-64-28.712-64-64c0-35.288,28.712-64,64-64c35.288,0,64,28.712,64,64C448,419.288,419.288,448,384,448z"/>
<path d="M414.864,376c-0.752-2.904-1.904-5.632-3.4-8.152l12.128-12.128l-11.312-11.312l-12.128,12.128
	c-2.528-1.488-5.248-2.64-8.152-3.4V336h-16v17.136c-2.904,0.752-5.632,1.904-8.152,3.4l-12.128-12.128l-11.312,11.312
	l12.128,12.128c-1.488,2.52-2.64,5.248-3.4,8.152H336v16h17.136c0.752,2.904,1.904,5.632,3.4,8.152l-12.128,12.128l11.312,11.312
	l12.128-12.128c2.528,1.488,5.248,2.64,8.152,3.4V432h16v-17.136c2.904-0.752,5.632-1.904,8.152-3.4l12.128,12.128l11.312-11.312
	l-12.128-12.128c1.488-2.52,2.64-5.248,3.4-8.152H432v-16H414.864z M384,400c-8.824,0-16-7.176-16-16c0-8.824,7.176-16,16-16
	c8.824,0,16,7.176,16,16C400,392.824,392.824,400,384,400z"/>
<path d="M227.464,183.848l12.136-12.136L228.288,160.4l-12.136,12.136c-2.528-1.488-5.248-2.64-8.152-3.4V152h-16v17.136
	c-2.904,0.752-5.632,1.904-8.152,3.4L171.712,160.4L160.4,171.712l12.136,12.136c-1.488,2.528-2.64,5.248-3.4,8.152H152v16
	h17.136c0.752,2.904,1.904,5.632,3.4,8.152L160.4,228.288l11.312,11.312l12.136-12.136c2.528,1.488,5.248,2.64,8.152,3.4V248h16
	v-17.136c2.904-0.752,5.632-1.904,8.152-3.4l12.136,12.136l11.312-11.312l-12.136-12.136c1.488-2.528,2.64-5.248,3.4-8.152H248
	v-16h-17.136C230.112,189.096,228.96,186.368,227.464,183.848z M200,216c-8.824,0-16-7.176-16-16c0-8.824,7.176-16,16-16
	c8.824,0,16,7.176,16,16C216,208.824,208.824,216,200,216z"/>
<path d="M200,72c34.104,0,66.184,13.256,90.336,37.32l11.296-11.336C274.456,70.912,238.36,56,200,56
	c-66.792,0-124.352,45.288-139.992,110.128l15.552,3.752C89.464,112.248,140.632,72,200,72z"/>
<path d="M56,200h16c0-5.04,0.296-10.112,0.88-15.072l-15.888-1.864C56.336,188.64,56,194.336,56,200z"/></g></g></g></svg>
