<svg version="1.1" xmlns="http://www.w3.org/2000/svg" xmlns:xlink="http://www.w3.org/1999/xlink" x="0px" y="0px"
	 viewBox="0 0 480 480" style="enable-background:new 0 0 480 480;" xml:space="preserve" class="icon icon-flots">
<g>
	<g>
		<g>
			<path d="M472,384h-8V200c0-4.416-3.576-8-8-8h-56h-16V8c0-4.416-3.576-8-8-8H264h-48H104c-4.416,0-8,3.584-8,8v184H24
				c-4.416,0-8,3.584-8,8v184H8c-4.416,0-8,3.584-8,8v32v48c0,4.416,3.584,8,8,8h48h160h48h160h48c4.424,0,8-3.584,8-8v-48v-32
				C480,387.584,476.424,384,472,384z M408,264v-56h40v112h-8c-4.424,0-8,3.584-8,8c0,4.416,3.576,8,8,8h8v16h-8
				c-4.424,0-8,3.584-8,8c0,4.416,3.576,8,8,8h8v16h-40v-40c0-4.416-3.576-8-8-8h-48c-4.424,0-8,3.584-8,8v40h-40V208h40v56
				c0,4.416,3.576,8,8,8h48C404.424,272,408,268.416,408,264z M392,352v32h-32v-32H392z M392,208v48h-32v-48h16H392z M224,16h32v48
				h-32V16z M112,16h96v56c0,4.416,3.584,8,8,8h48c4.424,0,8-3.584,8-8V16h96v176h-16h-56h-24v-40c0-4.416-3.576-8-8-8h-48
				c-4.416,0-8,3.584-8,8v40h-24h-48h-24V16z M256,160v32h-32v-32H256z M176,208v48h-32v-48H176z M32,208h72h24v56
				c0,4.416,3.584,8,8,8h48c4.416,0,8-3.584,8-8v-56h24h48h24v176h-96v-40c0-4.416-3.584-8-8-8h-48c-4.416,0-8,3.584-8,8v40H32V208z
				 M176,352v32h-32v-32H176z M48,464H16v-32h32V464z M208,464H64v-32h144V464z M256,464h-32v-32h32V464z M416,464H272v-32h144V464z
				 M464,464h-32v-32h32V464z M464,416h-40H264h-48H56H16v-16h8h112h48h112h56h48h56h8V416z"/>
			<path d="M64,240h24c4.416,0,8-3.584,8-8s-3.584-8-8-8H64c-4.416,0-8,3.584-8,8S59.584,240,64,240z"/>
			<path d="M104,256H64c-4.416,0-8,3.584-8,8c0,4.416,3.584,8,8,8h40c4.416,0,8-3.584,8-8C112,259.584,108.416,256,104,256z"/>
			<path d="M232,320c-4.416,0-8,3.584-8,8c0,4.416,3.584,8,8,8h24c4.424,0,8-3.584,8-8c0-4.416-3.576-8-8-8H232z"/>
			<path d="M216,368h40c4.424,0,8-3.584,8-8c0-4.416-3.576-8-8-8h-40c-4.416,0-8,3.584-8,8C208,364.416,211.584,368,216,368z"/>
			<path d="M216,272h24c13.232,0,24-10.768,24-24v-16c0-4.416-3.576-8-8-8h-24c-13.232,0-24,10.768-24,24v16
				C208,268.416,211.584,272,216,272z M224,248c0-4.408,3.592-8,8-8h16v8c0,4.408-3.592,8-8,8h-16V248z"/>
			<path d="M144,48h24c4.416,0,8-3.584,8-8s-3.584-8-8-8h-24c-4.416,0-8,3.584-8,8S139.584,48,144,48z"/>
			<path d="M144,80h40c4.416,0,8-3.584,8-8s-3.584-8-8-8h-40c-4.416,0-8,3.584-8,8S139.584,80,144,80z"/>
			<path d="M312,128c-4.424,0-8,3.584-8,8s3.576,8,8,8h24c4.424,0,8-3.584,8-8s-3.576-8-8-8H312z"/>
			<path d="M296,176h40c4.424,0,8-3.584,8-8s-3.576-8-8-8h-40c-4.424,0-8,3.584-8,8S291.576,176,296,176z"/>
			<path d="M296,80h24c13.232,0,24-10.768,24-24V40c0-4.416-3.576-8-8-8h-24c-13.232,0-24,10.768-24,24v16
				C288,76.416,291.576,80,296,80z M304,56c0-4.408,3.584-8,8-8h16v8c0,4.408-3.584,8-8,8h-16V56z"/>
		</g>
	</g>
</g>
</svg>
