<svg version="1.1" id="Capa_1" xmlns="http://www.w3.org/2000/svg" xmlns:xlink="http://www.w3.org/1999/xlink" x="0px" y="0px"
	 viewBox="0 0 512.776 512.776" style="enable-background:new 0 0 512.776 512.776;" xml:space="preserve" class="icon icon-boxes">
<g>
	<g>
		<path d="M504.63,204.024H322.327c-4.655,0-7.758,3.103-7.758,7.758v81.455l-6.982,5.43c-8.533-5.43-17.842-8.533-27.152-11.636
			l-3.103-23.273c-0.776-3.879-3.879-6.982-7.758-6.982h-27.151c-3.879,0-6.982,3.103-7.758,6.982l-3.103,23.273
			c-9.309,2.327-18.618,6.206-27.151,11.636l-6.982-5.43v-81.455c0-4.655-3.103-7.758-7.758-7.758H8.145
			c-4.655,0-7.758,3.103-7.758,7.758v181.527c0,4.655,3.103,7.758,7.758,7.758h121.794c0.776,2.327,3.103,3.879,6.206,4.655
			l23.273,3.103c2.327,9.309,6.206,18.618,11.636,27.152l-13.964,18.618c-2.327,3.103-2.327,7.758,0.776,10.085l19.394,19.394
			c3.103,3.103,6.982,3.103,10.085,0.776l18.618-13.964c8.533,5.43,17.842,8.533,27.152,11.636l3.103,23.273
			c0.776,3.879,3.879,6.982,7.758,6.982h27.152c3.879,0,6.982-3.103,7.758-6.982l3.103-23.273
			c9.309-2.327,18.618-6.206,27.151-11.636l18.618,13.964c1.552,0.776,3.103,1.552,4.655,1.552c2.327,0,4.655-0.776,6.206-2.327
			l18.618-18.618c3.103-3.103,3.103-6.982,0.776-10.085l-13.964-18.618c5.43-8.533,8.533-17.842,11.636-27.151l23.273-3.103
			c2.327,0,4.655-2.327,6.206-4.655H504.63c4.655,0,7.758-3.103,7.758-7.758V258.327v-46.545
			C512.388,207.127,509.285,204.024,504.63,204.024z M393.697,220.315h40.339v69.818l-14.739-15.515
			c-1.552-1.552-3.879-2.327-5.43-2.327c-2.327,0-3.879,0.776-5.43,2.327l-14.739,16.291V220.315z M330.085,219.539h47.321v31.03
			h-47.321V219.539z M134.594,219.539h47.321v31.03h-47.321V219.539z M78.739,219.539h41.115v70.594l-14.739-16.291
			c-1.552-0.776-3.879-2.327-6.206-2.327s-3.879,0.776-5.43,2.327l-14.739,16.291V219.539z M15.903,219.539h47.321v31.03H15.903
			V219.539z M134.594,363.83c-3.879,0.776-6.982,3.879-6.982,7.758v14.739H15.903V266.085h47.321v44.218
			c0,3.103,2.327,6.206,4.655,6.982c3.103,0.776,6.206,0,8.533-2.327l22.497-24.824l22.497,24.824
			c2.327,2.327,5.43,3.103,8.533,2.327c3.103-0.776,4.655-3.879,4.655-6.982v-44.218h47.321v17.067
			c-2.327,0-4.655,0.776-6.206,2.327l-19.394,19.394c-3.103,3.103-3.103,6.982-0.776,10.085l13.964,18.618
			c-5.43,8.533-8.533,17.842-11.636,27.152L134.594,363.83z M368.097,391.758l-21.721,3.103c-3.103,0.776-6.206,3.103-6.982,6.206
			c-2.327,11.636-6.206,22.497-13.188,31.806c-1.552,3.103-1.552,6.206,0,9.309l13.188,17.842l-9.309,9.309l-17.842-13.188
			c-2.327-2.327-6.206-2.327-9.309,0c-9.309,6.206-20.17,10.861-31.806,13.188c-3.103,0.776-5.43,3.103-6.206,6.982l-1.552,20.17
			h-13.188l-3.103-21.721c-0.776-3.103-3.103-6.206-6.206-6.982c-11.636-2.327-22.497-6.206-31.806-13.188
			c-3.103-1.552-6.206-1.552-9.309,0l-17.842,13.188l-9.309-9.309l13.188-17.067c2.327-2.327,2.327-6.982,0-9.309
			c-6.206-9.309-10.861-20.17-13.188-31.806c-0.776-3.103-3.103-5.43-6.982-6.206l-21.721-3.103v-13.188l21.721-3.103
			c3.103-0.776,6.206-3.103,6.982-6.206c2.327-11.636,6.206-22.497,13.188-31.806c1.552-3.103,1.552-6.206,0-9.309l-13.188-17.842
			l9.309-9.309l17.067,13.188c2.327,2.327,6.982,2.327,9.309,0c9.309-6.206,20.17-10.861,31.806-13.188
			c3.103-0.776,5.43-3.103,6.206-6.982l3.103-21.721h13.188l3.103,21.721c0.776,3.103,3.103,6.206,6.206,6.982
			c11.636,2.327,22.497,6.206,31.806,13.188c3.103,1.552,6.206,1.552,9.309,0l17.842-13.188l9.309,9.309l-13.964,18.618
			c-2.327,2.327-2.327,6.206,0,9.309c6.206,9.309,10.861,20.17,13.188,31.806c0.776,3.103,3.103,5.43,6.982,6.206l21.721,3.103
			V391.758z M496.873,386.327H383.612v-14.739c0-3.879-3.103-6.982-6.982-7.758l-23.273-3.103
			c-2.327-9.309-6.206-18.618-11.636-27.151l13.964-17.842c2.327-3.103,2.327-7.758-0.776-10.861l-18.618-18.618
			c-1.552-1.552-3.879-2.327-6.206-2.327v-17.067h47.321v43.442c0,3.103,2.327,6.206,4.655,6.982c3.103,0.776,6.206,0,8.533-2.327
			l22.497-24.824l22.497,24.824c2.327,2.327,5.43,3.103,8.533,2.327c3.103-0.776,4.655-3.879,4.655-6.982v-44.218h48.097V386.327z
			 M496.873,250.57h-47.321v-31.03h47.321V250.57z"/>
	</g>
</g>
<g>
	<g>
		<path d="M347.151,0h-62.836h-56.63h-62.836c-4.655,0-7.758,3.103-7.758,7.758v181.527c0.776,4.655,3.879,7.758,8.533,7.758
			h181.527c4.655,0,7.758-3.103,7.758-7.758V54.303V7.758C354.909,3.103,351.806,0,347.151,0z M236.218,15.515h40.339v70.594
			l-14.739-16.291c-1.552-1.552-3.879-2.327-5.43-2.327c-2.327,0-3.879,0.776-5.43,2.327l-14.739,16.291V15.515z M172.606,15.515
			h47.321v31.03h-47.321V15.515z M339.394,182.303H173.382v-0.776V62.061h47.321v44.218c0,3.103,2.327,6.206,4.655,6.982
			c3.103,0.776,6.206,0,8.533-2.327l22.497-24.824l22.497,24.824c2.327,2.327,5.43,3.103,8.533,2.327s4.655-3.879,4.655-6.982
			V62.061h47.321V182.303z M339.394,46.545h-47.321v-31.03h47.321V46.545z"/>
	</g>
</g>
<g>
	<g>
		<path d="M256.388,323.491c-34.133,0-62.061,27.927-62.061,62.061c0,34.133,27.927,62.061,62.061,62.061
			c34.133,0,62.061-27.927,62.061-62.061C318.448,350.642,290.521,323.491,256.388,323.491z M256.388,431.321
			c-25.6,0-46.545-20.945-46.545-46.545s20.945-46.545,46.545-46.545s46.545,20.945,46.545,46.545
			C302.933,410.376,281.988,431.321,256.388,431.321z"/>
	</g>
</g>
</svg>
