<svg version="1.1" id="Capa_1" xmlns="http://www.w3.org/2000/svg" xmlns:xlink="http://www.w3.org/1999/xlink" x="0px" y="0px"
	 viewBox="0 0 512 512" style="enable-background:new 0 0 512 512;" xml:space="preserve" class="icon icon-bottle-yad">
<g>
	<g>
		<path d="M466.298,437.178c-7.469-15.796-26.329-22.546-42.125-15.077l-38.098-38.114l38.098-38.088
			c3.649,1.725,7.595,2.737,11.624,2.979c17.441,1.049,32.431-12.239,33.48-29.68s-12.239-32.431-29.68-33.48
			c-0.451-7.711-3.72-14.988-9.184-20.448c-12.518-11.949-32.218-11.949-44.736,0c-9.427,9.45-11.922,23.794-6.24,35.872
			l-38.089,38.098l-38.071-38.088c5.687-12.081,3.192-26.431-6.24-35.883c-12.529-11.985-32.271-11.985-44.8,0
			c-5.464,5.46-8.733,12.737-9.184,20.448c-4.029,0.242-7.975,1.254-11.624,2.979c-15.796,7.469-22.546,26.329-15.077,42.125
			c7.469,15.796,26.329,22.546,42.125,15.077l38.111,38.111l-38.111,38.102c-3.632-1.714-7.558-2.72-11.567-2.965
			c-17.434-1.065-32.431,12.205-33.497,29.639c-1.066,17.434,12.205,32.431,29.639,33.497c0.994,16.696,14.827,29.724,31.552,29.717
			c4.669,0,9.279-1.034,13.501-3.027c15.801-7.458,22.565-26.313,15.107-42.115l38.108-38.117l38.106,38.106
			c-1.985,4.214-3.016,8.814-3.02,13.473c-0.011,17.485,14.154,31.668,31.638,31.679c16.725,0.007,30.558-13.022,31.552-29.717
			c4.029-0.242,7.975-1.254,11.624-2.979C467.017,471.834,473.767,452.974,466.298,437.178z M400.76,310.005
			c0.003-0.003,0.006-0.006,0.008-0.008c4.163-4.168,4.16-10.922-0.008-15.085c-0.001-0.001-0.002-0.002-0.003-0.003
			c-4.019-4.021-4.018-10.538,0.003-14.557c4.077-3.893,10.494-3.893,14.571,0c4.01,4.025,4.01,10.535,0,14.56
			c-4.168,4.165-4.17,10.92-0.005,15.088c4.165,4.168,10.92,4.17,15.088,0.005l0.001-0.001c4.024-4.024,10.549-4.023,14.572,0.001
			c4.024,4.024,4.023,10.548-0.001,14.572c-4.024,4.024-10.548,4.023-14.572-0.001c-4.165-4.164-10.917-4.164-15.083,0
			l-44.334,44.325l-14.567-14.574L400.76,310.005z M281.89,458.005c-4.164,4.165-4.164,10.917,0,15.083
			c0.006,0.006,0.012,0.012,0.018,0.018c4.011,4.021,4.003,10.531-0.018,14.542c-4.069,3.902-10.491,3.902-14.56,0
			c-0.001-0.001-0.002-0.002-0.003-0.003c-4.019-4.021-4.018-10.538,0.003-14.557c4.165-4.168,4.163-10.923-0.005-15.088
			c-4.168-4.165-10.923-4.163-15.088,0.005c-0.066,0.068-0.133,0.135-0.201,0.201c-4.082,3.965-10.605,3.87-14.57-0.211
			s-3.87-10.605,0.211-14.57c4.075-3.886,10.485-3.886,14.56,0c0.003,0.003,0.006,0.006,0.008,0.008
			c4.168,4.163,10.922,4.16,15.085-0.008l44.341-44.331l14.566,14.566L281.89,458.005z M444.974,457.996
			c-4.021,4.026-10.546,4.031-14.572,0.009c-0.086-0.089-0.173-0.176-0.261-0.261c-4.237-4.093-10.99-3.976-15.083,0.261
			s-3.976,10.99,0.261,15.083c4.016,4.023,4.016,10.537,0,14.56c-4.073,3.891-10.487,3.891-14.56,0
			c-0.001-0.001-0.002-0.002-0.003-0.003c-4.019-4.021-4.018-10.538,0.003-14.557c4.164-4.165,4.164-10.917,0-15.083L267.33,324.576
			c-2.003-2.003-4.72-3.128-7.552-3.125c-2.829,0.001-5.541,1.125-7.541,3.125l-0.001,0.001c-4.024,4.024-10.548,4.023-14.572-0.001
			c-4.024-4.024-4.023-10.548,0.001-14.572s10.548-4.023,14.572,0.001c4.168,4.168,10.925,4.168,15.093,0
			c4.168-4.168,4.168-10.925,0-15.093c-0.001-0.001-0.002-0.002-0.003-0.003c-4.019-4.021-4.018-10.538,0.003-14.557
			c4.073-3.891,10.487-3.891,14.56,0c0.001,0.001,0.002,0.002,0.003,0.003c4.019,4.021,4.018,10.538-0.003,14.557
			c-0.003,0.003-0.006,0.006-0.008,0.008c-4.163,4.168-4.159,10.922,0.008,15.085l133.43,133.419c4.165,4.164,10.917,4.164,15.083,0
			c4.023-4.018,10.54-4.018,14.563,0C448.992,447.445,448.996,453.97,444.974,457.996z"/>
	</g>
</g>
<g>
	<g>
		<path d="M309.324,85.333h-21.333V10.667C287.992,4.776,283.216,0,277.325,0h-128c-5.891,0-10.667,4.776-10.667,10.667v74.667
			h-21.333C76.107,85.38,42.705,118.782,42.658,160v320c0,17.673,14.327,32,32,32h149.333v-21.333H74.658
			c-5.891,0-10.666-4.776-10.666-10.667v-21.333h106.667c5.891,0,10.667-4.776,10.667-10.667V224
			c0-5.891-4.776-10.667-10.667-10.667H63.992v-32h202.667V160H63.992c0.035-29.441,23.893-53.298,53.333-53.333h32h128h32
			c29.441,0.035,53.298,23.893,53.333,53.333h-32v21.333h32v64h21.333V160C383.944,118.782,350.542,85.38,309.324,85.333z
			 M159.992,234.667v202.667h-96V234.667H159.992z M159.992,21.333h106.666v21.333H159.992V21.333z M266.659,85.333H159.992V64
			h106.667V85.333z"/>
	</g>
</g>
<g>
	<g>
		<rect x="287.99" y="160" width="21.333" height="21.333"/>
	</g>
</g>
</svg>
