<svg version="1.1" id="Layer_1" xmlns="http://www.w3.org/2000/svg" xmlns:xlink="http://www.w3.org/1999/xlink" x="0px" y="0px"
	 viewBox="0 0 512 512" style="enable-background:new 0 0 512 512;" xml:space="preserve" class="icon icon-gasoline">
<g>
	<g>
		<path d="M411.826,155.826c6.147,0,11.13-4.983,11.13-11.13v-33.391h11.13c6.147,0,11.13-4.983,11.13-11.13V55.652
			c0-6.147-4.983-11.13-11.13-11.13h-55.652V11.13c0-6.147-4.983-11.13-11.13-11.13h-44.522c-6.147,0-11.13,4.983-11.13,11.13
			v33.391H77.913c-6.147,0-11.13,4.983-11.13,11.13v44.522c0,6.147,4.983,11.13,11.13,11.13h11.13V244.87h-11.13
			c-6.147,0-11.13,4.983-11.13,11.13v44.522c0,6.147,4.983,11.13,11.13,11.13h11.13v133.565h-11.13
			c-6.147,0-11.13,4.983-11.13,11.13v44.522c0,6.147,4.983,11.13,11.13,11.13h356.174c6.147,0,11.13-4.983,11.13-11.13v-44.522
			c0-6.147-4.983-11.13-11.13-11.13h-11.13V311.652h11.13c6.147,0,11.13-4.983,11.13-11.13V256c0-6.147-4.983-11.13-11.13-11.13
			h-11.13v-33.391c0-6.147-4.983-11.13-11.13-11.13c-6.147,0-11.13,4.983-11.13,11.13v33.391H111.304v-89.043h55.652
			c6.147,0,11.13-4.983,11.13-11.13s-4.983-11.13-11.13-11.13h-55.652v-22.261h289.391v33.391
			C400.696,150.843,405.679,155.826,411.826,155.826z M333.913,22.261h22.261v22.261h-22.261V22.261z M422.957,489.739H89.043
			v-22.261h11.13h311.652h11.13V489.739z M111.304,445.217V311.652h289.391v133.565H111.304z M411.826,267.13h11.13v22.261h-11.13
			H100.174h-11.13V267.13h11.13H411.826z M100.174,89.044h-11.13V66.783h233.739h44.522h55.652v22.261h-11.13H100.174z"/>
	</g>
</g>
<g>
	<g>
		<path d="M419.695,170.218c-2.07-2.07-4.942-3.261-7.869-3.261s-5.799,1.191-7.869,3.261c-2.07,2.07-3.261,4.942-3.261,7.869
			s1.191,5.799,3.261,7.869s4.942,3.261,7.869,3.261s5.799-1.191,7.869-3.261c2.07-2.07,3.261-4.942,3.261-7.869
			S421.766,172.288,419.695,170.218z"/>
	</g>
</g>
<g>
	<g>
		<path d="M208.217,136.826c-2.07-2.07-4.942-3.261-7.869-3.261s-5.799,1.191-7.869,3.261c-2.07,2.07-3.261,4.942-3.261,7.869
			s1.191,5.799,3.261,7.869c2.07,2.07,4.942,3.261,7.869,3.261s5.799-1.191,7.869-3.261s3.261-4.942,3.261-7.869
			S210.287,138.897,208.217,136.826z"/>
	</g>
</g>
</svg>
