<svg version="1.1" id="Capa_1" xmlns="http://www.w3.org/2000/svg" xmlns:xlink="http://www.w3.org/1999/xlink" x="0px" y="0px"
	 viewBox="0 0 512 512" style="enable-background:new 0 0 512 512;" xml:space="preserve" class="icon icon-kolba-1">
<g>
	<g>
		<path d="M389.645,0h-267.29c-5.522,0-10,4.477-10,10v94.723c0,16.425,11.529,30.207,26.92,33.681v256.871
			C139.275,459.638,191.638,512,256,512s116.725-52.362,116.725-116.725V84.091h16.92c5.522,0,10-4.477,10-10V10
			C399.645,4.477,395.167,0,389.645,0z M146.883,119.25c-8.011-0.001-14.528-6.517-14.528-14.527V20h127.158v66.735
			c0,8.01-6.517,14.526-14.526,14.526c-8.01,0-14.526-6.517-14.526-14.526V72.02c0-5.523-4.478-10-10-10c-5.522,0-10,4.477-10,10
			c0,8.01-6.517,14.526-14.526,14.526c-8.01,0-14.526-6.516-14.526-14.526c0-5.523-4.478-10-10-10c-5.523,0-10,4.477-10,10v32.704
			C161.409,112.734,154.892,119.25,146.883,119.25z M256,492c-53.334,0-96.725-43.391-96.725-96.725V136.949
			c12.934-4.991,22.133-17.554,22.133-32.226v-1.384c4.418,2.057,9.341,3.207,14.526,3.207c6.536,0,12.653-1.825,17.87-4.994
			c5.555,11.644,17.444,19.709,31.183,19.709c19.038,0,34.526-15.488,34.526-34.526v-2.644h73.211v311.184h0.001
			C352.725,448.609,309.334,492,256,492z M379.645,64.091H279.514V51.157h22.655c5.522,0,10-4.477,10-10s-4.478-10-10-10h-22.655V20
			h100.131V64.091z"/>
	</g>
</g>
<g>
	<g>
		<path d="M350.329,34.09c-0.471-0.47-0.98-0.88-1.521-1.25c-0.55-0.36-1.13-0.67-1.729-0.92c-0.601-0.25-1.23-0.44-1.87-0.57
			c-1.29-0.26-2.62-0.26-3.91,0c-0.64,0.13-1.27,0.32-1.87,0.57c-0.6,0.25-1.18,0.56-1.729,0.92c-0.54,0.37-1.061,0.78-1.521,1.25
			c-0.46,0.46-0.88,0.97-1.24,1.52c-0.359,0.54-0.67,1.12-0.92,1.72c-0.25,0.61-0.439,1.24-0.569,1.87
			c-0.131,0.65-0.19,1.31-0.19,1.96c0,2.63,1.06,5.21,2.92,7.07c0.46,0.46,0.98,0.88,1.52,1.24c0.55,0.36,1.13,0.67,1.729,0.92
			c0.601,0.25,1.23,0.441,1.87,0.57c0.64,0.13,1.3,0.2,1.95,0.2c0.649,0,1.31-0.07,1.96-0.2c0.64-0.13,1.27-0.32,1.87-0.57
			c0.6-0.25,1.18-0.559,1.729-0.92c0.54-0.36,1.05-0.78,1.521-1.24c1.859-1.86,2.93-4.44,2.93-7.07
			C353.259,38.52,352.189,35.95,350.329,34.09z"/>
	</g>
</g>
<g>
	<g>
		<path d="M317.903,165.998H194.096c-5.523,0-10,4.477-10,10v218.288c0,39.624,31.782,72.321,70.849,72.886
			c0.357,0.005,0.712,0.008,1.068,0.008c18.987-0.001,36.864-7.332,50.439-20.711c13.834-13.635,21.452-31.815,21.452-51.192
			V175.998C327.903,170.475,323.426,165.998,317.903,165.998z M307.903,321.432c-4.346-1.998-9.179-3.114-14.268-3.114
			c-18.896,0-34.268,15.372-34.268,34.268c0,18.895,15.372,34.268,34.268,34.268c5.089,0,9.921-1.115,14.268-3.114v11.536
			c0,13.979-5.502,27.101-15.491,36.948c-9.986,9.843-23.23,15.181-37.179,14.95c-28.197-0.408-51.138-24.133-51.138-52.888v-83.172
			c3.159,0.398,6.443,0.596,9.882,0.596c24.518,0,37.136-10.094,48.268-18.999c10.208-8.167,18.271-14.617,35.773-14.617
			c3.542,0,6.817,0.272,9.885,0.824V321.432z M307.903,352.586c0,7.867-6.4,14.268-14.268,14.268c-7.867,0-14.268-6.4-14.268-14.268
			c0-7.867,6.4-14.268,14.268-14.268S307.903,344.719,307.903,352.586z M307.904,258.69c-3.159-0.398-6.445-0.596-9.885-0.596
			c-24.518,0-37.136,10.094-48.268,18.999c-10.208,8.167-18.271,14.617-35.774,14.617c-3.54,0-6.815-0.271-9.882-0.823V185.998
			h0.001h103.808V258.69z"/>
	</g>
</g>
<g>
	<g>
		<path d="M236.53,203.785c-16.25,0-29.47,13.22-29.47,29.47c0.001,16.25,13.22,29.47,29.47,29.47s29.47-13.22,29.47-29.47
			S252.78,203.785,236.53,203.785z M236.53,242.725c-5.222,0-9.47-4.248-9.47-9.47s4.249-9.47,9.47-9.47
			c5.222,0,9.47,4.249,9.47,9.47S241.752,242.725,236.53,242.725z"/>
	</g>
</g>
<g>
	<g>
		<path d="M207.17,138.25c-0.13-0.64-0.32-1.26-0.57-1.87c-0.25-0.6-0.56-1.18-0.92-1.72c-0.37-0.55-0.79-1.06-1.25-1.53
			c-0.46-0.46-0.97-0.87-1.52-1.24c-0.54-0.36-1.12-0.67-1.721-0.92c-0.609-0.25-1.239-0.44-1.88-0.57c-1.29-0.26-2.62-0.26-3.899,0
			c-0.641,0.13-1.271,0.32-1.87,0.57c-0.61,0.25-1.19,0.56-1.73,0.92c-0.55,0.37-1.06,0.78-1.52,1.24
			c-0.46,0.47-0.88,0.98-1.24,1.53c-0.36,0.54-0.67,1.12-0.92,1.72c-0.25,0.6-0.45,1.23-0.57,1.87c-0.13,0.65-0.2,1.3-0.2,1.96
			c0,0.65,0.07,1.31,0.2,1.95c0.12,0.64,0.32,1.27,0.57,1.87c0.25,0.6,0.56,1.19,0.92,1.73c0.36,0.54,0.78,1.06,1.24,1.52
			c0.46,0.46,0.97,0.87,1.52,1.24c0.54,0.36,1.12,0.67,1.73,0.92c0.6,0.25,1.23,0.44,1.87,0.57c0.64,0.13,1.3,0.2,1.949,0.2
			c0.65,0,1.311-0.07,1.95-0.2c0.641-0.13,1.27-0.32,1.88-0.57c0.6-0.25,1.181-0.56,1.721-0.92c0.55-0.37,1.059-0.78,1.52-1.24
			c0.46-0.46,0.88-0.98,1.25-1.52c0.36-0.55,0.67-1.13,0.92-1.73c0.25-0.6,0.44-1.23,0.57-1.87c0.13-0.64,0.189-1.3,0.189-1.95
			C207.359,139.55,207.299,138.9,207.17,138.25z"/>
	</g>
</g>
<g>
	<g>
		<path d="M317.903,130.206h-79.457c-5.523,0-10,4.477-10,10s4.477,10,10,10h79.457c5.523,0,10-4.477,10-10
			S323.426,130.206,317.903,130.206z"/>
	</g>
</g>
</svg>
