<svg version="1.1" id="Capa_1" xmlns="http://www.w3.org/2000/svg" xmlns:xlink="http://www.w3.org/1999/xlink" x="0px" y="0px"
	 viewBox="0 0 512 512" style="enable-background:new 0 0 512 512;" xml:space="preserve" class="icon icon-kolba-2">
<g>
	<g>
		<path d="M390.771,47.307c-22.546,0-40.889,18.343-40.889,40.889c0,22.546,18.343,40.889,40.889,40.889
			c22.546,0,40.889-18.343,40.889-40.889C431.66,65.65,413.317,47.307,390.771,47.307z M390.771,109.084
			c-11.519,0-20.889-9.371-20.889-20.889s9.37-20.889,20.889-20.889c11.519,0,20.889,9.371,20.889,20.889
			C411.66,99.714,402.289,109.084,390.771,109.084z"/>
	</g>
</g>
<g>
	<g>
		<path d="M369.113,148.903c-17.456,0-31.657,14.202-31.657,31.658s14.201,31.657,31.657,31.657
			c17.456,0,31.658-14.201,31.658-31.657S386.569,148.903,369.113,148.903z M369.113,192.218c-6.428,0-11.657-5.229-11.657-11.657
			c0-6.428,5.229-11.658,11.657-11.658c6.429,0,11.658,5.23,11.658,11.658C380.771,186.989,375.542,192.218,369.113,192.218z"/>
	</g>
</g>
<g>
	<g>
		<path d="M314.96,0c-18.342,0-33.264,14.922-33.264,33.264c0,18.342,14.923,33.264,33.264,33.264
			c18.342,0,33.264-14.922,33.264-33.264C348.224,14.922,333.302,0,314.96,0z M314.96,46.528c-7.313,0-13.264-5.95-13.264-13.264
			C301.697,25.95,307.647,20,314.96,20c7.314,0,13.264,5.95,13.264,13.264C328.224,40.578,322.274,46.528,314.96,46.528z"/>
	</g>
</g>
<g>
	<g>
		<path d="M428.994,457.538c-0.019-0.049-0.038-0.097-0.057-0.145L317.645,181.358v-35.999h8.894c5.523,0,10-4.477,10-10V88.163
			c0-5.523-4.477-10-10-10H185.461c-5.523,0-10,4.477-10,10v47.196c0,5.523,4.477,10,10,10h8.894v35.999L83.063,457.393
			c-0.02,0.048-0.039,0.096-0.057,0.145c-4.748,12.324-3.119,26.183,4.355,37.072c7.475,10.889,19.822,17.39,33.03,17.39H391.61
			c13.207,0,25.555-6.501,33.03-17.39C432.113,483.721,433.742,469.862,428.994,457.538z M195.461,98.163h121.077v27.196H195.461
			V98.163z M408.15,483.292c-3.799,5.534-9.828,8.708-16.54,8.708H120.391c-6.713,0-12.742-3.174-16.541-8.708
			c-3.786-5.515-4.588-12.254-2.206-18.5L213.63,187.037c0.48-1.189,0.726-2.458,0.726-3.739v-37.939h83.289v37.939
			c0,1.281,0.246,2.551,0.726,3.739l111.986,277.754C412.738,471.038,411.936,477.776,408.15,483.292z"/>
	</g>
</g>
<g>
	<g>
		<path d="M386.464,458.406l-85.896-223c-1.486-3.86-5.196-6.406-9.332-6.406h-70.473c-4.136,0-7.845,2.546-9.332,6.406l-85.896,223
			c-1.185,3.075-0.778,6.537,1.087,9.253c1.865,2.717,4.949,4.341,8.245,4.341h242.265c3.295,0,6.379-1.624,8.245-4.341
			C387.242,464.942,387.648,461.481,386.464,458.406z M227.628,249.001h56.744l11.306,29.351h-79.355L227.628,249.001z M149.436,452
			l5.393-14h130.66c5.523,0,10-4.477,10-10s-4.477-10-10-10H162.532l46.087-119.648h94.763L362.564,452H149.436z"/>
	</g>
</g>
<g>
	<g>
		<path d="M237.877,324.755c-14.955,0-27.123,12.167-27.123,27.122c0,14.956,12.168,27.123,27.123,27.123
			C252.833,379,265,366.833,265,351.877C265,336.922,252.833,324.755,237.877,324.755z M237.877,359
			c-3.928,0-7.123-3.195-7.123-7.123c0-3.927,3.195-7.122,7.123-7.122c3.927,0,7.123,3.195,7.123,7.122
			C245,355.805,241.805,359,237.877,359z"/>
	</g>
</g>
<g>
	<g>
		<path d="M293.123,354.755c-14.956,0-27.123,12.167-27.123,27.122C266,396.833,278.167,409,293.123,409
			s27.123-12.167,27.123-27.123S308.078,354.755,293.123,354.755z M293.123,389c-3.927,0-7.123-3.195-7.123-7.123
			c0-3.927,3.195-7.122,7.123-7.122c3.927,0,7.123,3.195,7.123,7.122S297.051,389,293.123,389z"/>
	</g>
</g>
<g>
	<g>
		<path d="M331.96,426.05c-0.13-0.64-0.32-1.27-0.57-1.87c-0.25-0.61-0.559-1.19-0.92-1.73c-0.37-0.55-0.78-1.06-1.24-1.52
			c-0.47-0.46-0.98-0.88-1.52-1.24c-0.55-0.36-1.13-0.67-1.73-0.92c-0.6-0.25-1.23-0.44-1.87-0.57c-1.29-0.26-2.62-0.26-3.91,0
			c-0.64,0.13-1.27,0.32-1.87,0.57c-0.6,0.25-1.18,0.56-1.73,0.92c-0.54,0.36-1.06,0.78-1.52,1.24c-0.461,0.46-0.88,0.97-1.24,1.52
			c-0.36,0.54-0.67,1.12-0.92,1.73c-0.25,0.6-0.44,1.23-0.57,1.87s-0.2,1.3-0.2,1.95c0,0.65,0.07,1.31,0.2,1.95s0.32,1.27,0.57,1.87
			c0.25,0.61,0.56,1.19,0.92,1.73c0.36,0.55,0.78,1.06,1.24,1.52c0.46,0.46,0.98,0.88,1.52,1.24c0.55,0.36,1.13,0.67,1.73,0.92
			c0.6,0.25,1.23,0.45,1.87,0.58c0.65,0.13,1.3,0.19,1.95,0.19c0.66,0,1.31-0.06,1.96-0.19c0.64-0.13,1.27-0.33,1.87-0.58
			c0.6-0.25,1.18-0.56,1.73-0.92c0.54-0.36,1.05-0.78,1.52-1.24c0.46-0.46,0.87-0.97,1.24-1.52c0.36-0.54,0.67-1.12,0.92-1.73
			c0.25-0.6,0.441-1.23,0.57-1.87c0.13-0.64,0.19-1.3,0.19-1.95S332.09,426.69,331.96,426.05z"/>
	</g>
</g>
</svg>
