<svg version="1.1" id="Capa_1" xmlns="http://www.w3.org/2000/svg" xmlns:xlink="http://www.w3.org/1999/xlink" x="0px" y="0px"
	 viewBox="0 0 512 512" style="enable-background:new 0 0 512 512;" xml:space="preserve" class="icon icon-list">
<g>
	<g>
		<path d="M404.945,81.455H296.339c-7.758-13.964-19.394-24.824-35.685-32.582C259.103,20.17,235.055,0,206.352,0
			c-27.927,0-52.752,20.945-54.303,48.873c-13.188,6.206-26.376,15.515-35.685,32.582H7.758C3.103,81.455,0,84.558,0,89.212v415.03
			C0,508.897,3.103,512,7.758,512h397.188c4.655,0,7.758-3.103,7.758-7.758V89.212C412.703,85.333,408.824,81.455,404.945,81.455z
			 M162.909,61.285c3.103-1.552,5.43-4.655,4.655-7.758c-1.552-21.721,17.067-38.788,38.788-38.788
			c21.721,0,39.564,16.291,38.788,38.788c0,3.103,1.552,6.206,4.655,7.758c24.824,10.085,38.788,28.703,40.339,57.406H121.794
			C124.121,90.764,137.309,71.37,162.909,61.285z M397.188,496.485H15.515V96.97h94.642c-2.327,8.533-3.879,17.842-3.879,29.479
			c0,4.655,3.103,7.758,7.758,7.758h184.63c4.655,0,7.758-3.103,7.758-7.758c0-10.861-1.552-20.17-3.879-29.479h94.642V496.485z"/>
	</g>
</g>
<g>
	<g>
		<path d="M206.352,30.255c-17.067,0-30.255,13.188-30.255,30.255s13.188,30.255,30.255,30.255
			c16.291,0,30.255-13.188,30.255-30.255S223.418,30.255,206.352,30.255z M206.352,75.248c-7.758,0-14.739-6.206-14.739-14.739
			c0-7.758,6.206-14.739,14.739-14.739c7.758,0,14.739,6.206,14.739,14.739C221.091,68.267,214.885,75.248,206.352,75.248z"/>
	</g>
</g>
<g>
	<g>
		<path d="M363.055,164.461h-66.715c-4.655,0-7.758,3.879-7.758,7.758v71.37c0,4.655,3.103,7.758,7.758,7.758h66.715
			c4.655,0,7.758-3.103,7.758-7.758v-71.37C370.812,167.564,367.709,164.461,363.055,164.461z M355.297,235.83h-51.2v-55.855h51.2
			V235.83z"/>
	</g>
</g>
<g>
	<g>
		<path d="M363.055,272.291h-66.715c-4.654,0-7.758,3.103-7.758,7.758v71.37c0,4.654,3.103,7.758,7.758,7.758h66.715
			c4.655,0,7.758-3.103,7.758-7.758v-71.37C370.812,276.17,366.933,272.291,363.055,272.291z M355.297,344.436h-51.2v-55.855h51.2
			V344.436z"/>
	</g>
</g>
<g>
	<g>
		<path d="M363.055,380.121h-66.715c-4.654,0-7.758,3.103-7.758,7.758v71.37c0,4.655,3.103,7.758,7.758,7.758h66.715
			c4.655,0,7.758-3.103,7.758-7.758v-71.37C370.812,384,366.933,380.121,363.055,380.121z M355.297,452.267h-51.2v-56.63h51.2
			V452.267z"/>
	</g>
</g>
<g>
	<g>
		<path d="M257.552,382.448c-3.103-2.327-7.758-3.103-10.861,0l-73.697,65.939l-27.927-40.339
			c-2.327-3.879-6.982-4.655-10.861-2.327s-4.655,6.982-2.327,10.861l32.582,47.321c1.552,1.552,3.103,3.103,5.43,3.103h0.776
			c1.552,0,3.879-0.776,5.43-2.327l80.679-71.37C259.879,390.206,259.879,385.552,257.552,382.448z"/>
	</g>
</g>
<g>
	<g>
		<path d="M473.212,141.188c-21.721,0-38.788,17.842-38.788,38.788v214.109v0.776v0.776l31.03,110.933
			c0.776,3.103,3.879,5.43,7.758,5.43s6.206-2.327,7.758-5.43L512,395.636v-0.776v-0.776V179.976
			C512,158.255,494.158,141.188,473.212,141.188z M473.212,475.539l-20.945-74.473h41.891L473.212,475.539z M496.485,385.552
			h-47.321V221.091h47.321V385.552z M496.485,205.576h-47.321v-25.6c0-13.188,10.861-23.273,24.049-23.273
			c13.188,0,23.273,10.861,23.273,23.273V205.576z"/>
	</g>
</g>
<g>
	<g>
		<path d="M231.176,168.339C187.733,136.533,128,147.394,96.97,190.061c-29.479,41.115-21.721,97.745,16.291,129.552l-11.636,16.291
			l-13.188-9.309c-1.552-0.776-3.103-1.552-5.43-0.776c-2.327,0-3.879,1.552-5.43,3.103L31.03,393.309
			c-10.085,13.964-6.982,34.133,6.982,44.218c13.964,10.085,34.133,6.982,44.218-6.982l46.545-64.388
			c2.327-3.103,1.552-8.533-1.552-10.861l-13.188-9.309l11.636-16.291c41.891,25.6,96.194,16.291,127.224-25.6
			C285.479,259.879,273.842,199.37,231.176,168.339z M69.818,421.236c-4.655,6.982-15.515,8.533-22.497,3.879
			c-6.982-5.43-8.533-15.515-3.879-22.497l41.891-58.182c3.103,2.327,23.273,17.067,25.6,18.618L69.818,421.236z M240.485,294.012
			C213.333,331.248,164.461,338.23,128,311.855c-36.461-26.376-44.218-76.8-18.618-113.261
			c25.6-35.685,75.248-44.994,112.485-17.842C258.327,207.903,266.861,258.327,240.485,294.012z"/>
	</g>
</g>
<g>
	<g>
		<path d="M145.067,290.909c-24.824-17.842-31.03-51.976-13.188-76.024c2.327-3.103,1.552-8.533-1.552-10.861
			c-3.879-2.327-8.533-1.552-10.861,1.552c-22.497,31.03-14.739,75.248,16.291,97.745c3.103,2.327,8.533,1.552,10.861-1.552
			S148.17,293.236,145.067,290.909z"/>
	</g>
</g>
</svg>
