<svg version="1.1" id="Layer_1" xmlns="http://www.w3.org/2000/svg" xmlns:xlink="http://www.w3.org/1999/xlink" x="0px" y="0px"
	 viewBox="0 0 295.238 295.238" style="enable-background:new 0 0 295.238 295.238;" xml:space="preserve" class="icon icon-people-heart">
<g>
	<g>
		<g>
			<path d="M185.714,57.143c0-21.005-17.09-38.095-38.095-38.095s-38.095,17.09-38.095,38.095s17.09,38.095,38.095,38.095
				S185.714,78.148,185.714,57.143z M147.619,85.714c-15.757,0-28.571-12.814-28.571-28.571c0-15.757,12.814-28.571,28.571-28.571
				s28.571,12.814,28.571,28.571C176.19,72.9,163.376,85.714,147.619,85.714z"/>
			<path d="M271.429,38.095C271.429,17.09,254.338,0,233.333,0s-38.095,17.09-38.095,38.095c0,21.005,17.09,38.095,38.095,38.095
				S271.429,59.1,271.429,38.095z M233.333,66.667c-15.757,0-28.571-12.814-28.571-28.571s12.814-28.571,28.571-28.571
				s28.571,12.814,28.571,28.571S249.09,66.667,233.333,66.667z"/>
			<path d="M266.667,76.19h-33.333h-0.001H200c-12.414,0-22.971,7.967-26.905,19.048h-25.476h-25.476
				c-3.933-11.081-14.49-19.048-26.905-19.048H61.905H28.571C12.814,76.19,0,89.005,0,104.762v76.19h23.81v95.238H100V200h9.524
				v95.238h76.19V200h9.524v76.19h76.19v-95.238h23.81v-76.19C295.238,89.005,282.424,76.19,266.667,76.19z M23.81,138.095v33.333
				H9.524v-66.666c0-10.505,8.543-19.048,19.048-19.048h66.667c7.071,0,13.186,3.919,16.471,9.652
				c-5.49,0.495-10.524,2.557-14.681,5.724c-4.181-3.719-9.61-5.852-15.305-5.852c-4.562,0-8.981,1.338-12.781,3.871l-7.038,4.69
				l-7.043-4.69c-3.786-2.533-8.21-3.871-12.776-3.871c-12.705,0-23.038,10.333-23.038,23.038v1.157
				c0,7.214,3.448,14.105,9.219,18.429l0.31,0.233H23.81z M28.571,119.433v-1.157c0-7.452,6.062-13.514,13.514-13.514
				c2.681,0,5.267,0.786,7.495,2.271l12.324,8.214l12.324-8.214c4.929-3.286,11.729-2.643,16.219,1.067
				c-2.986,4.51-4.733,9.91-4.733,15.71v9.524l-23.81,17.857l-27.929-20.948C30.59,127.705,28.571,123.667,28.571,119.433z
				 M57.143,266.667h-23.81v-14.286h23.81V266.667z M57.142,185.714v57.143h-23.81V176.19v-4.762v-29.762l28.571,21.429
				l23.81-17.857V200h4.762v42.857H66.666v-57.143H57.142z M90.477,266.667h-23.81v-14.286h23.81V266.667z M142.858,285.715h-23.81
				c0,0,0-14.286,0-14.286h23.81V285.715z M142.856,204.762v57.143h-23.81v-66.667v-4.762v-29.762l28.571,21.429l28.571-21.429
				v29.762v4.762h0.002v66.667h-23.81v-57.143H142.856z M176.191,285.714h-23.81v-14.286h23.81V285.714z M180.951,138.48
				c0.001,4.234-2.018,8.272-5.403,10.815l-27.929,20.943L119.69,149.29c-3.386-2.538-5.405-6.576-5.405-10.81v-1.157
				c0-7.452,6.062-13.514,13.514-13.514c2.676,0,5.267,0.786,7.495,2.271l12.324,8.214l12.324-8.214
				c2.229-1.486,4.824-2.271,7.495-2.271c7.452,0,13.514,6.062,13.514,13.514V138.48z M200.001,190.477h-14.286v-33.333h-4.762
				l0.305-0.229c5.771-4.329,9.219-11.219,9.219-18.433v-1.157c0-12.705-10.333-23.038-23.038-23.038
				c-4.562,0-8.981,1.338-12.781,3.871l-7.038,4.69l-7.043-4.695c-3.795-2.529-8.214-3.867-12.776-3.867
				c-12.705,0-23.038,10.333-23.038,23.038v1.157c0,7.214,3.448,14.105,9.219,18.429l0.31,0.233h-4.767v33.333H95.238V123.81
				c0-10.505,8.543-19.048,19.048-19.048h9.524h47.619h9.524c10.505,0,19.048,8.543,19.048,19.048V190.477z M228.572,266.667h-23.81
				v-14.286h23.81V266.667z M261.905,266.667h-23.81v-14.286h23.81V266.667z M261.905,171.428v4.762v66.667h-23.81v-57.143h-9.524
				v57.143h-23.81V200h4.763v-54.762l23.81,17.857l28.571-21.429V171.428z M261.262,130.248l-27.929,20.943l-23.81-17.857v-9.524
				c0-5.8-1.748-11.2-4.733-15.71c4.49-3.71,11.286-4.352,16.219-1.067l12.324,8.214l12.324-8.214
				c2.229-1.486,4.824-2.271,7.495-2.271c7.452,0,13.514,6.062,13.514,13.514v1.157
				C266.667,123.667,264.648,127.705,261.262,130.248z M285.715,171.429L285.715,171.429h-14.287v-33.333h-4.762l0.305-0.229
				c5.771-4.329,9.219-11.219,9.219-18.433v-1.157c0-12.705-10.333-23.038-23.038-23.038c-4.562,0-8.981,1.338-12.781,3.871
				l-7.038,4.69l-7.043-4.695c-3.795-2.529-8.214-3.867-12.776-3.867c-5.695,0-11.124,2.133-15.3,5.857
				c-4.157-3.167-9.19-5.233-14.681-5.724c3.281-5.738,9.395-9.657,16.467-9.657h66.667c10.505,0,19.048,8.543,19.048,19.048
				V171.429z"/>
			<path d="M100,38.095C100,17.09,82.91,0,61.905,0S23.81,17.09,23.81,38.095C23.81,59.1,40.9,76.19,61.905,76.19
				C82.91,76.19,100,59.1,100,38.095z M61.905,66.667c-15.757,0-28.571-12.814-28.571-28.571S46.148,9.524,61.905,9.524
				c15.757,0,28.571,12.814,28.571,28.571C90.476,53.852,77.662,66.667,61.905,66.667z"/>
		</g>
	</g>
</g>
</svg>
