<svg version="1.1" id="Capa_1" xmlns="http://www.w3.org/2000/svg" xmlns:xlink="http://www.w3.org/1999/xlink" x="0px" y="0px"
	 viewBox="0 0 512 512" style="enable-background:new 0 0 512 512;" xml:space="preserve" class="icon icon-policy">
<g>
	<g>
		<path d="M179.976,31.03c0-20.945-41.115-31.03-79.127-31.03C62.061,0,21.721,10.085,21.721,31.806
			c0,5.43,2.327,13.188,15.515,19.394c-0.776,8.533,4.655,15.515,11.636,20.17c-5.43,8.533-7.758,18.618-7.758,28.703
			c0,32.582,26.376,58.958,58.958,58.958c32.582,0,58.958-26.376,58.958-58.958c0-10.085-2.327-19.394-6.982-27.927
			c7.758-5.43,13.188-12.412,12.412-21.721C176.873,44.218,179.976,36.461,179.976,31.03z M99.297,144.291
			c-24.049,0-43.442-19.394-43.442-43.442c0-7.758,2.327-15.515,6.206-21.721c21.721,8.533,51.2,8.533,74.473,0.776
			c3.879,6.206,5.43,13.964,5.43,21.721C142.739,124.897,123.345,144.291,99.297,144.291z M62.836,62.061
			c-2.327-0.776-4.655-2.327-6.206-3.879c29.479-4.655,58.958-4.655,88.436,0C128.776,71.37,86.109,73.697,62.836,62.061z
			 M152.048,40.339c-1.552,0.776-2.327,1.552-3.103,3.103c-31.806-5.43-63.612-5.43-95.418,0c-1.552-2.327-3.103-3.103-4.655-3.879
			c-10.085-3.879-11.636-7.758-11.636-7.758c0-4.655,21.721-16.291,63.612-16.291c41.891,0,63.612,11.636,63.612,16.291
			C164.461,34.909,154.376,38.788,152.048,40.339z"/>
	</g>
</g>
<g>
	<g>
		<path d="M145.842,170.667H55.079C24.824,170.667,0,197.818,0,231.952V384c0,4.655,3.103,7.758,7.758,7.758h31.806v95.418
			c0,13.964,11.636,24.824,25.6,24.824h71.37c13.964,0,25.6-11.636,25.6-24.824v-96.194h31.806c4.655,0,7.758-3.103,7.758-7.758
			V231.952C200.921,197.818,176.097,170.667,145.842,170.667z M47.321,290.909c-4.655,0-7.758,3.103-7.758,7.758v76.8H15.515
			V231.952c0-25.6,17.842-45.77,39.564-45.77h90.764c10.861,0,20.945,5.43,28.703,13.964L55.079,345.212v-46.545
			C55.079,294.012,51.976,290.909,47.321,290.909z M186.182,375.467h-0.776h-24.048v-76.8c0-4.655-3.103-7.758-7.758-7.758
			c-4.655,0-7.758,3.103-7.758,7.758V486.4c0,5.43-4.655,9.309-10.085,9.309h-27.151V388.655c0-4.655-3.103-7.758-7.758-7.758
			s-7.758,3.103-7.758,7.758v107.83H65.164c-5.43,0-10.085-4.655-10.085-9.309V370.036l128-155.151
			c1.552,5.43,3.103,10.861,3.103,17.067V375.467z"/>
	</g>
</g>
<g>
	<g>
		<path d="M114.036,224.194c-0.776-3.103-3.103-4.655-6.206-5.43l-20.17-3.103l-10.085-18.618c-1.552-2.327-3.879-4.655-6.982-4.655
			s-5.43,1.552-6.982,4.655l-9.309,18.618l-20.17,3.103c-3.103,0.776-5.43,2.327-6.206,5.43c-0.776,3.103,0,6.206,2.327,7.758
			l14.739,13.964l-3.879,20.17c-0.776,3.103,0.776,6.206,3.103,7.758s5.43,2.327,8.533,0.776l17.842-9.309l17.842,9.309
			c2.327,1.552,5.43,0.776,8.533-0.776c2.327-1.552,3.879-4.655,3.103-7.758l-3.103-20.17l14.739-13.964
			C114.036,229.624,114.812,226.521,114.036,224.194z M83.006,238.158c-1.552,1.552-2.327,4.655-2.327,6.982l1.552,8.533
			l-7.758-3.879c-2.327-1.552-4.655-1.552-6.982,0l-7.758,3.879l1.552-8.533c0.776-2.327-0.776-5.43-2.327-6.982l-6.206-6.206
			l7.758-1.552c2.327,0,4.655-2.327,6.206-3.879l3.879-7.758l3.879,7.758c0.776,2.327,3.103,3.879,6.206,3.879l8.533,1.552
			L83.006,238.158z"/>
	</g>
</g>
<g>
	<g>
		<path d="M504.242,0C224.97,0,308.752,0,200.145,0c-4.655,0-7.758,3.103-7.758,7.758v164.461c0,4.655,3.103,7.758,7.758,7.758
			c116.364,0,187.733,0,304.097,0c4.655,0,7.758-3.103,7.758-7.758c0-94.642,0-71.37,0-164.461C512,3.103,508.897,0,504.242,0z
			 M207.903,15.515h28.703c-3.103,14.739-14.739,26.376-28.703,29.479V15.515z M207.903,163.685v-28.703
			c14.739,3.103,25.6,14.739,28.703,28.703H207.903z M496.485,164.461h-28.703c3.103-14.739,14.739-26.376,28.703-29.479V164.461z
			 M496.485,119.467c-23.273,3.103-41.115,21.721-44.218,44.994H252.121c-3.103-23.273-21.721-41.115-44.218-44.994V60.509
			c23.273-3.103,41.115-21.721,44.218-44.994h200.145c3.103,23.273,20.945,41.115,44.218,44.994V119.467z M496.485,44.218
			c-14.739-3.103-25.6-14.739-28.703-28.703h28.703V44.218z"/>
	</g>
</g>
<g>
	<g>
		<path d="M352.194,21.721c-37.236,0-67.491,30.255-67.491,68.267c0,37.236,30.255,68.267,67.491,68.267
			c37.236,0,67.491-30.255,67.491-68.267C419.685,51.976,389.43,21.721,352.194,21.721z M352.194,142.739
			c-28.703,0-51.976-23.273-51.976-52.752c0-28.703,23.273-52.751,51.976-52.751c28.703,0,51.976,23.273,51.976,52.751
			C404.17,118.691,380.897,142.739,352.194,142.739z"/>
	</g>
</g>
<g>
	<g>
		<path d="M373.139,89.988c-3.879-2.327-9.309-4.655-16.291-6.982V64.388c4.655,0.776,9.309,2.327,13.964,5.43l6.206-9.309
			c-6.206-4.655-13.188-6.982-20.17-6.982v-3.879h-6.206v4.655c-6.206,0-11.636,2.327-15.515,6.206
			c-3.879,3.879-6.206,8.533-6.206,13.964s1.552,10.085,5.43,12.412c3.103,3.103,8.533,5.43,16.291,6.982v19.394
			c-5.43-0.776-11.636-3.879-17.067-8.533l-7.758,7.758c6.982,6.206,14.739,10.085,24.048,10.861v6.982h6.206v-6.982
			c6.982,0,11.636-2.327,16.291-6.206c3.879-3.879,6.206-8.533,6.206-13.964S377.018,93.091,373.139,89.988z M339.782,72.145
			c0-2.327,0.776-3.879,2.327-5.43s3.879-2.327,6.982-2.327v16.759c-3.408-1.349-5.539-2.128-6.982-3.571
			C340.558,76.024,339.782,74.473,339.782,72.145z M363.83,110.158c-1.552,1.552-4.655,2.327-7.758,3.103V95.418
			c3.879,1.552,6.206,2.327,7.758,3.879s2.327,3.103,2.327,5.43S365.382,108.606,363.83,110.158z"/>
	</g>
</g>
<g>
	<g>
		<path d="M504.242,204.024H238.933c-4.655,0-7.758,3.103-7.758,7.758v292.461c0,4.655,3.103,7.758,7.758,7.758h265.309
			c4.655,0,7.758-3.103,7.758-7.758V211.782C512,207.903,508.897,204.024,504.242,204.024z M496.485,496.485H246.691V219.539
			h249.794V496.485z"/>
	</g>
</g>
<g>
	<g>
		<path d="M377.794,239.709H276.945c-4.655,0-7.758,3.103-7.758,7.758v76.8c0,4.655,3.879,7.758,7.758,7.758h100.848
			c4.655,0,7.758-3.103,7.758-7.758v-76.8C385.552,242.812,382.448,239.709,377.794,239.709z M370.036,316.509h-85.333v-61.285
			h85.333V316.509z"/>
	</g>
</g>
<g>
	<g>
		<path d="M477.091,245.915H404.17c-4.655,0-7.758,3.103-7.758,7.758c0,3.879,3.103,7.758,7.758,7.758h72.921
			c4.655,0,7.758-3.103,7.758-7.758S481.745,245.915,477.091,245.915z"/>
	</g>
</g>
<g>
	<g>
		<path d="M477.091,296.339H404.17c-4.655,0-7.758,3.103-7.758,7.758c0,3.879,3.103,7.758,7.758,7.758h72.921
			c4.655,0,7.758-3.103,7.758-7.758S481.745,296.339,477.091,296.339z"/>
	</g>
</g>
<g>
	<g>
		<path d="M473.988,345.988h-204.8c-4.654,0-7.758,3.103-7.758,7.758s3.103,7.758,7.758,7.758h204.8
			c4.655,0,7.758-3.103,7.758-7.758C481.745,349.091,478.642,345.988,473.988,345.988z"/>
	</g>
</g>
<g>
	<g>
		<path d="M473.988,396.412h-204.8c-4.654,0-7.758,3.103-7.758,7.758c0,4.655,3.103,7.758,7.758,7.758h204.8
			c4.655,0,7.758-3.103,7.758-7.758S478.642,396.412,473.988,396.412z"/>
	</g>
</g>
<g>
	<g>
		<path d="M473.988,446.836h-204.8c-4.654,0-7.758,3.103-7.758,7.758c0,3.879,3.103,7.758,7.758,7.758h204.8
			c4.655,0,7.758-3.103,7.758-7.758S478.642,446.836,473.988,446.836z"/>
	</g>
</g>
</svg>
