<svg version="1.1" id="Capa_1" xmlns="http://www.w3.org/2000/svg" xmlns:xlink="http://www.w3.org/1999/xlink" x="0px" y="0px"
	 viewBox="0 0 496 496" style="enable-background:new 0 0 496 496;" xml:space="preserve">
<g>
	<g>
		<g>
			<path d="M0,392h112V104H0V392z M16,176h48v32H16V176z M16,224h64v-64H16v-40h80v208H16V224z M16,344h80v32H16V344z"/>
			<path d="M16,72h48v16h16V24C80,10.768,69.232,0,56,0H0v88h16V72z M16,16h40c4.416,0,8,3.592,8,8v32H16V16z"/>
			<path d="M80,424H16v-16H0v24v8v56h80v-56h16v-32H80V424z M64,480H16v-40h48V480z"/>
			<rect x="32" y="272" width="16" height="16"/>
			<rect x="64" y="272" width="16" height="16"/>
			<path d="M408,312c-13.232,0-24,10.768-24,24s10.768,24,24,24s24-10.768,24-24S421.232,312,408,312z M408,344
				c-4.416,0-8-3.592-8-8c0-4.408,3.584-8,8-8c4.416,0,8,3.592,8,8C416,340.408,412.416,344,408,344z"/>
			<path d="M200,312c-13.232,0-24,10.768-24,24s10.768,24,24,24s24-10.768,24-24S213.232,312,200,312z M200,344
				c-4.416,0-8-3.592-8-8c0-4.408,3.584-8,8-8s8,3.592,8,8C208,340.408,204.416,344,200,344z"/>
			<path d="M280,312c-13.232,0-24,10.768-24,24s10.768,24,24,24s24-10.768,24-24S293.232,312,280,312z M280,344
				c-4.416,0-8-3.592-8-8c0-4.408,3.584-8,8-8c4.416,0,8,3.592,8,8C288,340.408,284.416,344,280,344z"/>
			<path d="M440,280H128v16h45.52c-12.96,8.608-21.52,23.312-21.52,40s8.568,31.392,21.52,40H128v16h312c30.872,0,56-25.12,56-56
				S470.872,280,440,280z M253.52,296c-5.36,3.56-9.96,8.16-13.52,13.52c-3.56-5.36-8.16-9.96-13.52-13.52H253.52z M200,368
				c-17.648,0-32-14.352-32-32s14.352-32,32-32s32,14.352,32,32S217.648,368,200,368z M226.48,376c5.36-3.56,9.96-8.16,13.52-13.52
				c3.56,5.36,8.16,9.96,13.52,13.52H226.48z M280,368c-17.648,0-32-14.352-32-32s14.352-32,32-32s32,14.352,32,32
				S297.648,368,280,368z M306.48,376c12.96-8.608,21.52-23.312,21.52-40s-8.568-31.392-21.52-40h75.048
				C368.568,304.608,360,319.312,360,336s8.568,31.392,21.52,40H306.48z M408,368c-17.648,0-32-14.352-32-32s14.352-32,32-32
				s32,14.352,32,32S425.648,368,408,368z M440,376h-5.52c12.96-8.608,21.52-23.312,21.52-40s-8.568-31.392-21.52-40H440
				c22.056,0,40,17.944,40,40C480,358.056,462.056,376,440,376z"/>
			<polygon points="192,480 176,480 176,408 160,408 160,496 208,496 208,408 192,408 			"/>
			<polygon points="416,480 400,480 400,408 384,408 384,496 432,496 432,408 416,408 			"/>
			<path d="M248,176h24v24h64v-24h24v88h16V160H232v104h16V176z M288,176h32v8h-32V176z"/>
			<polygon points="336,264 336,240 272,240 272,264 288,264 288,256 320,256 320,264 			"/>
			<path d="M278.656,139.56L264,117.576V100l19.912-14.936C288.2,91.632,295.584,96,304,96c8.416,0,15.8-4.368,20.088-10.936
				L344,100v17.576l-14.656,21.984l13.312,8.872L360,122.424V92l-32-24V0h-16v49.472c-2.512-0.896-5.184-1.472-8-1.472
				c-2.816,0-5.488,0.576-8,1.472V0h-16v68l-32,24v30.424l17.344,26.016L278.656,139.56z M304,64c4.416,0,8,3.592,8,8s-3.584,8-8,8
				c-4.416,0-8-3.592-8-8S299.584,64,304,64z"/>
		</g>
	</g>
</g>
</svg>
