
<svg version="1.1" id="Capa_1" xmlns="http://www.w3.org/2000/svg" xmlns:xlink="http://www.w3.org/1999/xlink" x="0px" y="0px"
	 viewBox="0 0 512 512" style="enable-background:new 0 0 512 512;" xml:space="preserve" class="icon icon-svecha">
<g>
	<g>
		<path d="M384.273,296.843c-18.875-25.061-45.13-44.314-74.526-54.795v-31.124h6.791c5.522,0,10-4.478,10-10v-39.923
			c0-5.523-4.478-10-10-10h-14.409c10.637-11.328,17.161-26.561,17.161-43.289c0-55.424-54.422-103.258-56.738-105.267
			c-3.76-3.26-9.344-3.26-13.104,0c-2.316,2.009-56.738,49.843-56.738,105.267c0,16.728,6.524,31.961,17.161,43.289h-14.409
			c-5.522,0-10,4.477-10,10v39.923c0,5.522,4.478,10,10,10h6.791v31.124c-29.396,10.48-55.651,29.734-74.526,54.795
			c-21.076,27.984-32.217,61.342-32.217,96.467c0,44.179,17.575,85.344,49.488,115.912c1.861,1.783,4.339,2.778,6.917,2.778h208.17
			c2.578,0,5.056-0.995,6.917-2.778c31.913-30.568,49.488-71.733,49.488-115.912C416.49,358.185,405.349,324.828,384.273,296.843z
			 M256.01,23.833c13.534,13.683,43.28,47.856,43.28,83.88c0,20.429-14.225,37.597-33.29,42.123v-24.493c0-5.522-4.478-10-10-10
			c-5.522,0-10,4.478-10,10v24.493c-19.065-4.525-33.29-21.693-33.29-42.123C212.71,71.798,242.484,37.54,256.01,23.833z
			 M205.462,171.002h101.076v19.923H205.462V171.002z M355.99,492.001H156.01c-26.15-26.45-40.5-61.339-40.5-98.69
			c0-62.348,40.045-116.385,99.646-134.463c4.216-1.278,7.098-5.164,7.098-9.569v-38.354H246v76.876h-55.9c-5.522,0-10,4.478-10,10
			c0,5.522,4.478,10,10,10h95.132c5.522,0,10-4.478,10-10c0-5.522-4.478-10-10-10H266v-76.877h23.747v38.354
			c0,4.405,2.882,8.291,7.098,9.569c59.601,18.078,99.646,72.115,99.646,134.463C396.49,430.662,382.14,465.55,355.99,492.001z"/>
	</g>
</g>
<g>
	<g>
		<path d="M331.7,295.85c-0.131-0.64-0.32-1.27-0.57-1.87c-0.25-0.609-0.561-1.19-0.92-1.73c-0.36-0.55-0.78-1.06-1.24-1.52
			c-0.46-0.46-0.97-0.88-1.52-1.239c-0.54-0.36-1.12-0.671-1.73-0.921c-0.6-0.25-1.229-0.449-1.87-0.569
			c-1.29-0.26-2.62-0.26-3.91,0c-0.63,0.12-1.26,0.319-1.87,0.569c-0.6,0.25-1.18,0.561-1.72,0.921
			c-0.55,0.359-1.06,0.779-1.52,1.239c-0.46,0.46-0.88,0.971-1.25,1.52c-0.36,0.54-0.67,1.12-0.92,1.73
			c-0.25,0.601-0.44,1.23-0.57,1.87c-0.13,0.641-0.19,1.3-0.19,1.95s0.061,1.31,0.19,1.96c0.129,0.63,0.32,1.26,0.57,1.87
			c0.25,0.6,0.56,1.18,0.92,1.72c0.37,0.55,0.79,1.061,1.25,1.521c0.46,0.46,0.97,0.88,1.52,1.25c0.54,0.359,1.12,0.66,1.72,0.91
			c0.61,0.25,1.24,0.449,1.87,0.579c0.65,0.12,1.311,0.19,1.96,0.19c0.65,0,1.311-0.07,1.95-0.19c0.641-0.13,1.271-0.329,1.87-0.579
			c0.61-0.25,1.19-0.551,1.73-0.91c0.55-0.37,1.06-0.79,1.52-1.25c0.46-0.46,0.88-0.971,1.24-1.521c0.359-0.54,0.67-1.12,0.92-1.72
			c0.25-0.61,0.439-1.24,0.57-1.87c0.13-0.65,0.199-1.31,0.199-1.96C331.899,297.15,331.83,296.49,331.7,295.85z"/>
	</g>
</g>
<g>
	<g>
		<path d="M354.221,326.738c-1.862-2.738-4.959-4.378-8.27-4.378H166.049c-3.311,0-6.408,1.64-8.27,4.378
			c-13.391,19.7-20.469,42.721-20.469,66.572c0,27.258,9.509,53.901,26.774,75.021c1.899,2.323,4.741,3.671,7.742,3.671h168.347
			c3.001,0,5.843-1.348,7.742-3.671c17.267-21.119,26.775-47.762,26.775-75.021C374.69,369.459,367.612,346.438,354.221,326.738z
			 M335.289,452.002H176.71c-12.541-16.923-19.4-37.586-19.4-58.691c0-18.083,4.894-35.591,14.198-50.95h168.984
			c9.305,15.359,14.198,32.867,14.198,50.95C354.69,414.417,347.831,435.079,335.289,452.002z"/>
	</g>
</g>
<g>
</g>
<g>
</g>
<g>
</g>
<g>
</g>
<g>
</g>
<g>
</g>
<g>
</g>
<g>
</g>
<g>
</g>
<g>
</g>
<g>
</g>
<g>
</g>
<g>
</g>
<g>
</g>
<g>
</g>
</svg>
