<svg version="1.1" id="Capa_1" xmlns="http://www.w3.org/2000/svg" xmlns:xlink="http://www.w3.org/1999/xlink" x="0px" y="0px"
	 viewBox="0 0 512 512" style="enable-background:new 0 0 512 512;" xml:space="preserve" class="icon icon-podemnik">
<g>
	<g>
		<path d="M504.242,238.933H415.03c-4.655,0-7.758,3.103-7.758,7.758v93.867c0,4.655,3.103,7.758,7.758,7.758h89.212
			c4.655,0,7.758-3.103,7.758-7.758v-93.867C512,242.812,508.897,238.933,504.242,238.933z M496.485,332.8h-73.697v-78.352h73.697
			V332.8z"/>
	</g>
</g>
<g>
	<g>
		<path d="M504.242,119.467H415.03c-4.655,0-7.758,3.103-7.758,7.758v93.867c0,4.655,3.103,7.758,7.758,7.758h89.212
			c4.655,0,7.758-3.103,7.758-7.758v-93.867C512,123.345,508.897,119.467,504.242,119.467z M496.485,213.333h-73.697v-78.352h73.697
			V213.333z"/>
	</g>
</g>
<g>
	<g>
		<path d="M504.242,0H415.03c-4.655,0-7.758,3.103-7.758,7.758v93.867c0,4.655,3.103,7.758,7.758,7.758h89.212
			c4.655,0,7.758-3.103,7.758-7.758V7.758C512,3.103,508.897,0,504.242,0z M496.485,93.867h-73.697V15.515h73.697V93.867z"/>
	</g>
</g>
<g>
	<g>
		<path d="M224.97,162.133l-24.049-58.958c-6.982-17.067-23.273-27.927-41.891-27.927H65.164c-4.655,0-7.758,3.103-7.758,7.758
			v83.782c0,4.655,3.103,7.758,7.758,7.758h153.6c0-0.776,0-0.776,0-0.776c4.655,0,7.758-3.103,7.758-7.758
			C226.521,164.461,225.745,162.909,224.97,162.133z M72.921,158.255V89.988h86.885c11.636,0,22.497,6.982,27.152,18.618
			l20.17,49.648H72.921z"/>
	</g>
</g>
<g>
	<g>
		<path d="M504.242,356.073H387.103V112.485c0-4.655-3.103-7.758-7.758-7.758h-33.358c-4.655,0-7.758,3.103-7.758,7.758v171.442
			l-10.861-6.206l-80.679-210.23c-8.533-21.721-29.479-36.461-52.752-36.461H29.479c-4.655,0-7.758,3.103-7.758,7.758v179.2H7.758
			c-4.655,0-7.758,3.103-7.758,7.758c0,77.576,0,140.412,0,217.212c0,4.655,3.103,7.758,7.758,7.758h13.964
			C22.497,484.849,50.424,512,84.558,512c34.133,0,61.285-27.151,62.836-61.285h65.164C213.333,484.849,241.261,512,275.394,512
			c34.133,0,61.285-27.151,62.836-61.285h43.442c4.655,0,7.758-3.103,7.758-7.758v-44.218h114.812c4.655,0,7.758-3.103,7.758-7.758
			v-27.927C512,359.176,508.897,356.073,504.242,356.073z M37.236,46.545h156.703c17.067,0,32.582,10.861,38.788,26.376
			L307.2,266.085l-19.394-10.861c-4.654-2.327-10.085-2.327-14.739,0.776s-6.982,7.758-6.982,12.412v34.133H159.03v-65.164
			c0-10.861-8.533-19.394-19.394-19.394h-102.4V46.545z M83.782,496.485c-25.6,0-47.321-20.945-47.321-47.321
			c0-26.376,20.945-47.321,47.321-47.321c25.6,0,47.321,20.945,47.321,47.321C131.103,475.539,110.158,496.485,83.782,496.485z
			 M273.842,496.485c-25.6,0-47.321-20.945-47.321-47.321c0-26.376,20.945-47.321,47.321-47.321c25.6,0,47.321,20.945,47.321,47.321
			C321.164,475.539,299.442,496.485,273.842,496.485z M339.006,435.2h-3.879c-6.206-27.927-31.03-48.873-61.285-48.873
			c-29.479,0-54.303,20.945-61.285,48.873h-68.267c-6.206-27.927-31.03-48.873-61.285-48.873c-29.479,0-54.303,20.945-61.285,48.873
			h-6.206v-74.473h323.491V435.2z M339.006,345.212H15.515V233.503h124.121c2.327,0,3.879,1.552,3.879,3.879v72.921
			c0,4.655,3.103,7.758,7.758,7.758h122.57c4.655,0,7.758-3.103,7.758-7.758v-41.115l57.406,31.806V345.212z M371.588,435.2h-17.842
			V120.242h17.842C371.588,240.485,371.588,317.285,371.588,435.2z M496.485,384H387.103v-12.412h109.382V384z"/>
	</g>
</g>
<g>
	<g>
		<path d="M83.782,415.806c-18.618,0-33.358,14.739-33.358,33.358s14.739,33.358,33.358,33.358
			c18.618,0,33.358-14.739,33.358-33.358C117.915,430.545,102.4,415.806,83.782,415.806z M83.782,467.782
			c-10.085,0-17.842-8.533-17.842-17.842c0-10.085,7.758-17.842,17.842-17.842c10.085,0,17.842,8.533,17.842,17.842
			C102.4,459.248,93.867,467.782,83.782,467.782z"/>
	</g>
</g>
<g>
	<g>
		<path d="M273.842,415.806c-18.618,0-33.358,14.739-33.358,33.358s14.739,33.358,33.358,33.358
			c18.618,0,33.358-14.739,33.358-33.358S292.461,415.806,273.842,415.806z M273.842,467.782c-10.085,0-17.842-8.533-17.842-17.842
			c0-10.085,7.758-17.842,17.842-17.842s17.842,8.533,17.842,17.842S283.927,467.782,273.842,467.782z"/>
	</g>
</g>
</svg>
