<svg version="1.1" id="Layer_1" xmlns="http://www.w3.org/2000/svg" xmlns:xlink="http://www.w3.org/1999/xlink" x="0px" y="0px"
	 viewBox="0 0 480 480" style="enable-background:new 0 0 480 480;" xml:space="preserve" class="icon icon-truck">
<g>
	<g>
		<g>
			<path d="M472,368h-8V96c0-4.416-3.576-8-8-8H152c-4.424,0-8,3.584-8,8v32H64c-3.144,0-5.984,1.832-7.28,4.688l-40,88
				C16.24,221.728,16,222.856,16,224v32v48c-4.424,0-8,3.584-8,8c0,4.416,3.576,8,8,8v16c-4.424,0-8,3.584-8,8c0,4.416,3.576,8,8,8
				v16H8c-4.424,0-8,3.584-8,8v16c0,13.232,10.768,24,24,24v8c0,30.88,25.128,56,56,56s56-25.12,56-56v-8h40v16
				c0,13.232,10.768,24,24,24h80c13.232,0,24-10.768,24-24v-16h40v8c0,30.88,25.128,56,56,56s56-25.12,56-56v-8
				c13.232,0,24-10.768,24-24v-16C480,371.584,476.424,368,472,368z M160,256V136v-32h288v264H160V256z M32,225.736L69.152,144H144
				v104H68.944l8-16H88c4.424,0,8-3.584,8-8s-3.576-8-8-8H72c-3.032,0-5.8,1.712-7.16,4.424L51.056,248H32V225.736z M32,352h8
				c4.424,0,8-3.584,8-8c0-4.416-3.576-8-8-8h-8v-16h8c4.424,0,8-3.584,8-8c0-4.416-3.576-8-8-8h-8v-40h112v104H32V352z M120,424
				c0,22.056-17.944,40-40,40c-22.056,0-40-17.944-40-40v-8h26.216c-1.368,2.36-2.216,5.072-2.216,8c0,8.84,7.16,16,16,16
				c8.84,0,16-7.16,16-16c0-2.928-0.848-5.64-2.216-8H120V424z M288,432c0,4.408-3.584,8-8,8h-80c-4.416,0-8-3.592-8-8v-16h40
				c0,4.416,3.576,8,8,8s8-3.584,8-8h40V432z M440,424c0,22.056-17.944,40-40,40c-22.056,0-40-17.944-40-40v-8h26.216
				c-1.368,2.36-2.216,5.072-2.216,8c0,8.84,7.16,16,16,16c8.84,0,16-7.16,16-16c0-2.928-0.848-5.64-2.216-8H440V424z M464,392
				c0,4.408-3.584,8-8,8h-8h-96h-56H184h-56H32h-8c-4.416,0-8-3.592-8-8v-8h8h128h304h8V392z"/>
			<path d="M400,128H208c-13.232,0-24,10.768-24,24v24v32v32v32v48c0,13.232,10.768,24,24,24h192c13.232,0,24-10.768,24-24v-48v-32
				v-32v-32v-24C424,138.768,413.232,128,400,128z M408,320c0,4.408-3.584,8-8,8H208c-4.416,0-8-3.592-8-8v-40h208V320z M408,264
				H200v-16h208V264z M408,232H200v-16h208V232z M408,200H200v-16h208V200z M408,168H200v-16c0-4.408,3.584-8,8-8h192
				c4.416,0,8,3.592,8,8V168z"/>
			<path d="M288,312h32c4.424,0,8-3.584,8-8c0-4.416-3.576-8-8-8h-32c-4.424,0-8,3.584-8,8C280,308.416,283.576,312,288,312z"/>
			<path d="M120,280c-4.424,0-8,3.584-8,8v16c0,4.416,3.576,8,8,8s8-3.584,8-8v-16C128,283.584,124.424,280,120,280z"/>
			<path d="M8,88h40c4.424,0,8-3.584,8-8s-3.576-8-8-8H8c-4.424,0-8,3.584-8,8S3.576,88,8,88z"/>
			<path d="M80,88h16c4.424,0,8-3.584,8-8s-3.576-8-8-8H80c-4.424,0-8,3.584-8,8S75.576,88,80,88z"/>
			<path d="M192,16h40c4.424,0,8-3.584,8-8s-3.576-8-8-8h-40c-4.424,0-8,3.584-8,8S187.576,16,192,16z"/>
			<path d="M264,16h16c4.424,0,8-3.584,8-8s-3.576-8-8-8h-16c-4.424,0-8,3.584-8,8S259.576,16,264,16z"/>
			<path d="M384,48h40c4.424,0,8-3.584,8-8s-3.576-8-8-8h-40c-4.424,0-8,3.584-8,8S379.576,48,384,48z"/>
			<path d="M456,48h16c4.424,0,8-3.584,8-8s-3.576-8-8-8h-16c-4.424,0-8,3.584-8,8S451.576,48,456,48z"/>
		</g>
	</g>
</g>
</svg>
