<?xml version="1.0" encoding="iso-8859-1"?>
<!-- Generator: Adobe Illustrator 19.0.0, SVG Export Plug-In . SVG Version: 6.00 Build 0)  -->
<svg version="1.1" id="Capa_1" xmlns="http://www.w3.org/2000/svg" xmlns:xlink="http://www.w3.org/1999/xlink" x="0px" y="0px"
	 viewBox="0 0 480.003 480.003" style="enable-background:new 0 0 480.003 480.003;" xml:space="preserve" class="icon icon-transport">
<g>
	<g>
		<path d="M222.219,314.961c-1.528-1.872-3.808-2.96-6.216-2.96h-72v-64c0-4.424-3.584-8-8-8h-32c-4.416,0-8,3.576-8,8v88h-24v-104
			c0-4.424-3.584-8-8-8h-32c-4.416,0-8,3.576-8,8v104h-16c-4.416,0-8,3.576-8,8v64v64c0,4.424,3.584,8,8,8h176
			c3.784,0,7.048-2.648,7.832-6.352l32-152C224.331,319.289,223.739,316.825,222.219,314.961z M112.003,256.001h16l-0.008,60.688
			l-6.624,6.632l-9.368,9.368V256.001z M40.003,240.001h16v96h-16V240.001z M177.515,464.001H16.003v-48h171.616L177.515,464.001z
			 M190.987,400.001H16.003v-48h16h32h40h8c2.12,0,4.16-0.84,5.656-2.344l21.656-21.656h66.832L190.987,400.001z"/>
	</g>
</g>
<g>
	<g>
		<rect x="56.003" y="368.001" width="16" height="16"/>
	</g>
</g>
<g>
	<g>
		<rect x="88.003" y="368.001" width="16" height="16"/>
	</g>
</g>
<g>
	<g>
		<rect x="120.003" y="368.001" width="16" height="16"/>
	</g>
</g>
<g>
	<g>
		<rect x="152.003" y="368.001" width="16" height="16"/>
	</g>
</g>
<g>
	<g>
		<path d="M392.003,272.001h-48c-30.88,0-56,25.128-56,56v16c0,4.424,3.584,8,8,8h144c4.416,0,8-3.576,8-8v-16
			C448.003,297.129,422.883,272.001,392.003,272.001z M432.003,336.001h-128v-8c0-22.056,17.944-40,40-40h48
			c22.056,0,40,17.944,40,40V336.001z"/>
	</g>
</g>
<g>
	<g>
		<path d="M312.003,368.001c-13.232,0-24,10.768-24,24s10.768,24,24,24s24-10.768,24-24S325.235,368.001,312.003,368.001z
			 M312.003,400.001c-4.408,0-8-3.584-8-8c0-4.416,3.592-8,8-8c4.408,0,8,3.584,8,8
			C320.003,396.417,316.411,400.001,312.003,400.001z"/>
	</g>
</g>
<g>
	<g>
		<path d="M424.003,368.001c-13.232,0-24,10.768-24,24s10.768,24,24,24s24-10.768,24-24S437.235,368.001,424.003,368.001z
			 M424.003,400.001c-4.408,0-8-3.584-8-8c0-4.416,3.592-8,8-8c4.408,0,8,3.584,8,8
			C432.003,396.417,428.411,400.001,424.003,400.001z"/>
	</g>
</g>
<g>
	<g>
		<rect x="352.003" y="400.001" width="32" height="16"/>
	</g>
</g>
<g>
	<g>
		<rect x="352.003" y="368.001" width="32" height="16"/>
	</g>
</g>
<g>
	<g>
		<path d="M472.003,176.001h-208c-4.416,0-8,3.576-8,8v144v112c0,4.424,3.584,8,8,8h8v8c0,13.232,10.768,24,24,24s24-10.768,24-24
			v-8h96v8c0,13.232,10.768,24,24,24s24-10.768,24-24v-8h8c4.416,0,8-3.576,8-8v-112v-144
			C480.003,179.577,476.419,176.001,472.003,176.001z M304.003,456.001c0,4.416-3.592,8-8,8c-4.408,0-8-3.584-8-8v-8h16V456.001z
			 M448.003,456.001c0,4.416-3.592,8-8,8c-4.408,0-8-3.584-8-8v-8h16V456.001z M464.003,432.001h-8h-32h-112h-32h-8v-104
			c0-39.704,32.304-72,72-72h48c39.696,0,72,32.296,72,72V432.001z M464.003,277.457c-0.424-0.6-0.936-1.136-1.368-1.728
			c-1.328-1.784-2.696-3.528-4.144-5.2c-0.752-0.872-1.528-1.704-2.312-2.544c-1.44-1.544-2.936-3.024-4.488-4.456
			c-0.824-0.76-1.632-1.528-2.48-2.256c-1.8-1.544-3.68-2.992-5.6-4.392c-0.656-0.48-1.28-1-1.952-1.464
			c-2.624-1.8-5.344-3.464-8.16-4.976c-0.632-0.336-1.296-0.608-1.936-0.936c-2.224-1.128-4.488-2.184-6.824-3.12
			c-1.032-0.416-2.08-0.768-3.128-1.144c-2.048-0.736-4.112-1.4-6.224-1.984c-1.136-0.312-2.264-0.616-3.416-0.88
			c-2.216-0.512-4.464-0.92-6.736-1.264c-1.04-0.16-2.064-0.352-3.12-0.48c-3.32-0.384-6.688-0.632-10.112-0.632h-48
			c-3.424,0-6.792,0.248-10.112,0.624c-1.056,0.12-2.072,0.32-3.12,0.48c-2.272,0.344-4.52,0.752-6.736,1.264
			c-1.152,0.272-2.288,0.568-3.416,0.88c-2.112,0.584-4.184,1.248-6.224,1.984c-1.048,0.376-2.104,0.736-3.128,1.144
			c-2.328,0.936-4.592,1.992-6.824,3.12c-0.64,0.32-1.304,0.592-1.936,0.936c-2.816,1.512-5.536,3.176-8.16,4.976
			c-0.672,0.464-1.296,0.984-1.952,1.464c-1.92,1.4-3.8,2.848-5.6,4.392c-0.848,0.728-1.664,1.496-2.48,2.256
			c-1.544,1.432-3.04,2.912-4.488,4.456c-0.784,0.84-1.56,1.68-2.312,2.544c-1.448,1.68-2.816,3.424-4.144,5.208
			c-0.44,0.592-0.944,1.12-1.368,1.728v-85.456h192V277.457z"/>
	</g>
</g>
<g>
	<g>
		<path d="M360.003,88.001h-98.4l-30.08-82.736c-1.152-3.16-4.16-5.264-7.52-5.264h-32c-2.368,0-4.624,1.056-6.144,2.872
			c-1.52,1.816-2.16,4.216-1.728,6.552l14.376,79.064L60.819,95.737L47.163,68.425c-1.36-2.712-4.128-4.424-7.16-4.424h-32
			c-2.568,0-4.984,1.232-6.488,3.32c-1.504,2.088-1.912,4.776-1.104,7.208l15.16,45.472l-15.16,45.472
			c-0.816,2.44-0.4,5.128,1.104,7.208c1.504,2.08,3.92,3.32,6.488,3.32h32c3.032,0,5.8-1.712,7.16-4.424l13.656-27.312l137.688,7.24
			l-14.376,79.064c-0.424,2.336,0.208,4.736,1.728,6.552c1.52,1.816,3.776,2.88,6.144,2.88h32c3.36,0,6.368-2.104,7.52-5.264
			l30.08-82.736h98.4c17.648,0,32-14.352,32-32S377.651,88.001,360.003,88.001z M360.003,136.001h-104
			c-3.36,0-6.368,2.104-7.52,5.264l-30.08,82.736h-16.816l14.288-78.568c0.408-2.256-0.168-4.584-1.6-6.392
			c-1.432-1.808-3.56-2.904-5.848-3.032l-152-8c-3.328-0.216-6.16,1.568-7.576,4.416l-13.792,27.576h-15.96l12.496-37.472
			c0.544-1.64,0.544-3.424,0-5.064L19.099,80.001h15.96l13.792,27.576c1.424,2.84,4.264,4.616,7.576,4.416l152-8
			c2.296-0.128,4.424-1.224,5.848-3.032c1.424-1.808,2.008-4.136,1.6-6.392l-14.288-78.568h16.816l30.08,82.736
			c1.152,3.16,4.16,5.264,7.52,5.264h104c8.824,0,16,7.176,16,16S368.827,136.001,360.003,136.001z"/>
	</g>
</g>
</svg>
