<?xml version="1.0" encoding="iso-8859-1"?>
<!-- Generator: Adobe Illustrator 19.0.0, SVG Export Plug-In . SVG Version: 6.00 Build 0)  -->
<svg version="1.1" id="Capa_1" xmlns="http://www.w3.org/2000/svg" xmlns:xlink="http://www.w3.org/1999/xlink" x="0px" y="0px"
	 viewBox="0 0 512.388 512.388" style="enable-background:new 0 0 512.388 512.388;" xml:space="preserve" class="icon icon-transport-other">
<g>
	<g>
		<path d="M336.873,334.739l-34.909-58.182c-5.43-9.309-15.515-14.739-25.6-14.739h-57.406c-4.655,0-7.758,3.103-7.758,7.758
			v126.448H7.952c-2.327,0-3.879,0.776-5.43,2.327s-2.327,3.879-2.327,5.43v56.63c0,4.655,3.103,7.758,7.758,7.758h41.891
			c-0.776,24.824,19.394,44.218,43.442,44.218c24.048,0,43.442-19.394,42.667-44.218h84.558
			c-0.776,24.824,18.618,44.218,42.667,44.218c24.049,0,43.442-19.394,42.667-44.218h27.927c4.655,0,7.758-3.103,7.758-7.758
			c0-103.176,0-8.533,0-110.158C341.527,344.824,339.976,339.394,336.873,334.739z M226.715,277.333h49.648
			c4.655,0,9.309,3.103,12.412,6.982l35.685,58.182h-97.745V277.333z M93.285,496.873c-14.739,0-27.152-12.412-27.152-27.151
			c-0.776-15.515,11.636-27.152,27.152-27.152c14.739,0,27.151,12.412,27.151,27.152
			C120.436,484.461,108.024,496.873,93.285,496.873z M262.4,496.873c-14.739,0-27.151-12.412-27.151-27.151
			c0-14.739,12.412-27.152,27.151-27.152c14.739,0,27.152,12.412,27.152,27.152C290.327,484.461,277.915,496.873,262.4,496.873z
			 M326.012,452.655h-24.048c-6.206-15.515-21.721-25.6-39.564-25.6c-17.842,0-32.582,10.861-39.564,25.6h-90.764
			c-6.206-15.515-21.721-25.6-39.564-25.6c-17.842,0-32.582,10.861-39.564,25.6H15.709v-41.115h310.303V452.655z M326.012,396.024
			h-99.297v-38.012h99.297V396.024z"/>
	</g>
</g>
<g>
	<g>
		<path d="M193.358,304.485h-72.145c-4.655,0-7.758,3.103-7.758,7.758v65.164c0,4.655,3.103,7.758,7.758,7.758h72.145
			c4.655,0,7.758-3.103,7.758-7.758v-65.164C201.115,307.588,198.012,304.485,193.358,304.485z M184.824,369.648h-56.63V320h56.63
			V369.648z"/>
	</g>
</g>
<g>
	<g>
		<path d="M86.303,304.485H14.158c-4.655,0-7.758,3.103-7.758,7.758v65.164c0,4.655,3.103,7.758,7.758,7.758h72.145
			c4.655,0,7.758-3.103,7.758-7.758v-65.164C94.061,307.588,90.958,304.485,86.303,304.485z M78.545,369.648h-56.63V320h56.63
			V369.648z"/>
	</g>
</g>
<g>
	<g>
		<path d="M319.03,48.485c-10.085-21.721-41.891-23.273-93.867-4.655L146.036,1.164c-2.327-1.552-5.43-1.552-7.758,0L114.23,15.127
			c-2.327,1.552-3.879,3.103-3.879,6.206c0,2.327,0.776,4.655,2.327,6.206l48.097,45.77c-41.115,23.273-75.248,45.77-95.418,59.733
			l-41.891-11.636c-2.327-0.776-5.43,0-6.982,1.552L2.521,134.594c-1.552,1.552-2.327,4.655-2.327,6.982s1.552,4.655,3.879,6.206
			l27.152,17.067c-9.309,10.085-16.291,17.067-12.412,24.824c2.327,5.43,7.758,6.206,16.291,6.206c3.103,0,6.982,0,10.861-0.776
			l-3.879,32.582c-0.776,5.43,3.879,9.309,9.309,8.533l17.842-3.103c2.327-0.776,4.655-2.327,5.43-4.655l17.842-39.564
			c24.048-6.206,62.836-17.842,107.055-34.909l4.655,65.939c0,2.327,1.552,4.655,3.879,6.206c2.327,1.552,4.655,1.552,6.982,0.776
			l25.6-9.309c2.327-0.776,4.655-3.103,4.655-5.43l17.067-88.436C309.721,95.806,329.115,70.982,319.03,48.485z M251.539,112.873
			c-1.552,0.776-3.103,3.103-3.879,5.43l-17.067,86.885l-12.412,4.655l-4.655-66.715c0-5.43-6.206-8.533-10.861-6.982
			c-49.648,20.17-93.867,33.358-118.691,38.788c-1.552,0.776-4.655,2.327-5.43,4.655l-16.291,39.564l-3.879,0.776l3.879-31.03
			c0.776-4.655-3.103-8.533-7.758-8.533s-11.636,0.776-16.291,0.776c3.103-3.879,7.758-8.533,10.861-12.412
			s2.327-9.309-1.552-11.636l-26.376-17.067l2.327-2.327l41.891,11.636c2.327,0.776,5.43,0,6.982-1.552
			c20.17-15.515,58.958-40.339,105.503-65.939c4.655-2.327,5.43-9.309,1.552-12.412l-48.873-45.77l11.636-6.206l78.352,42.667
			c1.552,0.776,4.655,1.552,6.206,0.776c43.442-16.291,71.37-17.842,77.576-4.655S291.103,90.376,251.539,112.873z"/>
	</g>
</g>
<g>
	<g>
		<path d="M504.436,365.77H373.333c-4.655,0-7.758,3.103-7.758,7.758V504.63c0,4.655,3.103,7.758,7.758,7.758h131.103
			c4.655,0,7.758-3.103,7.758-7.758V373.527C512.194,368.873,509.091,365.77,504.436,365.77z M409.794,496.873h-28.703V381.285
			h28.703V496.873z M452.461,496.873h-27.151V381.285h27.151V496.873z M496.679,496.873h-28.703V381.285h28.703V496.873z"/>
	</g>
</g>
<g>
	<g>
		<path d="M504.436,195.103H373.333c-4.655,0-7.758,3.103-7.758,7.758v131.103c0,4.655,3.103,7.758,7.758,7.758h131.103
			c4.655,0,7.758-3.103,7.758-7.758V202.861C512.194,198.982,509.091,195.103,504.436,195.103z M409.794,326.206h-28.703V210.618
			h28.703V326.206z M452.461,326.206h-27.151V210.618h27.151V326.206z M496.679,326.982h-28.703V210.618h28.703V326.982z"/>
	</g>
</g>
<g>
	<g>
		<path d="M504.436,25.212H373.333c-4.655,0-7.758,3.103-7.758,7.758v131.103c0,4.655,3.103,7.758,7.758,7.758h44.218h42.667h44.218
			c4.655,0,7.758-3.103,7.758-7.758V32.97C512.194,28.315,509.091,25.212,504.436,25.212z M409.794,156.315h-28.703V40.727h28.703
			V156.315z M452.461,156.315h-27.151V40.727h27.151V156.315z M496.679,156.315h-28.703V40.727h28.703V156.315z"/>
	</g>
</g>
</svg>
